<svg width="24" height="24" viewBox="0 -960 960 960" xmlns="http://www.w3.org/2000/svg" xmlns:xlink="http://www.w3.org/1999/xlink" fill="#E8EAED" overflow="hidden"><style>
.MsftOfcThm_Text1_Fill_v2 {
 fill:#0E1F39; 
}
</style>
<path d="M192-132C174.667-132 160.333-137.667 149-149 137.667-160.333 132-174.667 132-192L132-768C132-785.333 137.667-799.667 149-811 160.333-822.333 174.667-828 192-828L768-828C785.333-828 799.667-822.333 811-811 822.333-799.667 828-785.333 828-768L828-192C828-174.667 822.333-160.333 811-149 799.667-137.667 785.333-132 768-132L192-132ZM192-160 768-160C776-160 783.333-163.333 790-170 796.667-176.667 800-184 800-192L800-768C800-776 796.667-783.333 790-790 783.333-796.667 776-800 768-800L192-800C184-800 176.667-796.667 170-790 163.333-783.333 160-776 160-768L160-192C160-184 163.333-176.667 170-170 176.667-163.333 184-160 192-160ZM280-272 680-272C702-272 715.5-277 720.5-287 725.5-297 728-308 728-320L728-480C728-495.333 723.167-509.333 713.5-522 703.833-534.667 692-542.667 678-546L678-580C678-604 669.333-624.667 652-642 634.667-659.333 614-668 590-668L370-668C346-668 325.333-659.333 308-642 290.667-624.667 282-604 282-580L282-546C268-542.667 256.167-534.667 246.5-522 236.833-509.333 232-495.333 232-480L232-320C232-298 237-284.5 247-279.5 257-274.5 268-272 280-272ZM280-300C274-300 269.167-301.833 265.5-305.5 261.833-309.167 260-314 260-320L260-480C260-491.333 263.833-500.833 271.5-508.5 279.167-516.167 288.667-520 300-520 311.333-520 320.833-516.167 328.5-508.5 336.167-500.833 340-491.333 340-480L340-400 620-400 620-480C620-491.333 623.833-500.833 631.5-508.5 639.167-516.167 648.667-520 660-520 671.333-520 680.833-516.167 688.5-508.5 696.167-500.833 700-491.333 700-480L700-320C700-314 698.167-309.167 694.5-305.5 690.833-301.833 686-300 680-300L280-300ZM368-428 368-480C368-498 362.167-513.167 350.5-525.5 338.833-537.833 325.333-544.667 310-546L310-580C310-597.333 315.667-611.667 327-623 338.333-634.333 352.667-640 370-640L590-640C607.333-640 621.667-634.333 633-623 644.333-611.667 650-597.333 650-580L650-546C634.667-544.667 621.167-537.833 609.5-525.5 597.833-513.167 592-498 592-480L592-428 368-428ZM160-160 160-800 160-160Z" class="MsftOfcThm_Text1_Fill_v2" stroke="none" stroke-width="1" stroke-linecap="butt" stroke-linejoin="miter" stroke-miterlimit="4" fill="#0E1F39" fill-opacity="1"/></svg>