<svg width="24" height="24" viewBox="0 -960 960 960" xmlns="http://www.w3.org/2000/svg" xmlns:xlink="http://www.w3.org/1999/xlink" fill="#E8EAED" overflow="hidden"><style>
.MsftOfcThm_Text1_Fill_v2 {
 fill:#0E1F39; 
}
</style>
<path d="M212-464 212-492 748-492 748-464 212-464ZM212-572 212-600 748-600 748-572 212-572ZM466-132 466-308 376-218 356-238 480-362 604-238 584-218 494-308 494-132 466-132ZM480-702 356-826 376-846 466-756 466-932 494-932 494-756 584-846 604-826 480-702Z" class="MsftOfcThm_Text1_Fill_v2" stroke="none" stroke-width="1" stroke-linecap="butt" stroke-linejoin="miter" stroke-miterlimit="4" fill="#0E1F39" fill-opacity="1"/></svg>