<svg width="24" height="24" viewBox="0 -960 960 960" xmlns="http://www.w3.org/2000/svg" xmlns:xlink="http://www.w3.org/1999/xlink" fill="#E8EAED" overflow="hidden"><style>
.MsftOfcThm_Text1_Fill_v2 {
 fill:#0E1F39; 
}
</style>
<path d="M272-312 300-312 300-372 660-372 660-312 688-312 688-448C688-465.333 682.333-479.667 671-491 659.667-502.333 645.333-508 628-508L628-556C628-573.333 622.333-587.667 611-599 599.667-610.333 585.333-616 568-616L392-616C374.667-616 360.333-610.333 349-599 337.667-587.667 332-573.333 332-556L332-508C314.667-508 300.333-502.333 289-491 277.667-479.667 272-465.333 272-448L272-312ZM300-400 300-448C300-457.333 303-465 309-471 315-477 322.667-480 332-480L628-480C637.333-480 645-477 651-471 657-465 660-457.333 660-448L660-400 300-400ZM360-508 360-556C360-565.333 363-573 369-579 375-585 382.667-588 392-588L568-588C577.333-588 585-585 591-579 597-573 600-565.333 600-556L600-508 360-508ZM192-132C174.667-132 160.333-137.667 149-149 137.667-160.333 132-174.667 132-192L132-768C132-785.333 137.667-799.667 149-811 160.333-822.333 174.667-828 192-828L768-828C785.333-828 799.667-822.333 811-811 822.333-799.667 828-785.333 828-768L828-192C828-174.667 822.333-160.333 811-149 799.667-137.667 785.333-132 768-132L192-132ZM192-160 768-160C776-160 783.333-163.333 790-170 796.667-176.667 800-184 800-192L800-768C800-776 796.667-783.333 790-790 783.333-796.667 776-800 768-800L192-800C184-800 176.667-796.667 170-790 163.333-783.333 160-776 160-768L160-192C160-184 163.333-176.667 170-170 176.667-163.333 184-160 192-160ZM160-160 160-800 160-160Z" class="MsftOfcThm_Text1_Fill_v2" stroke="none" stroke-width="1" stroke-linecap="butt" stroke-linejoin="miter" stroke-miterlimit="4" fill="#0E1F39" fill-opacity="1"/></svg>