<svg viewBox="0 0 96 96" xmlns="http://www.w3.org/2000/svg" xmlns:xlink="http://www.w3.org/1999/xlink" id="Icons_DoorClosed_M" overflow="hidden"><style>
.MsftOfcThm_Background1_Fill_v2 {
 fill:#FEFEFF; 
}
</style>
<g id="Icons"><path d="M30.005 88 66.005 88 66.005 15 30.005 15ZM32.005 17 64.005 17 64.005 86 32.005 86Z" class="MsftOfcThm_Background1_Fill_v2" stroke="none" stroke-width="1" stroke-linecap="butt" stroke-linejoin="miter" stroke-miterlimit="4" fill="#FEFEFF" fill-opacity="1"/><path d="M72.005 85.999 72.005 8.999 24 8.999 24 85.999 10.005 85.999 10.005 87.999 26 87.999 26 10.999 70.005 10.999 70.005 87.999 86.005 87.999 86.005 85.999 72.005 85.999Z" class="MsftOfcThm_Background1_Fill_v2" stroke="none" stroke-width="1" stroke-linecap="butt" stroke-linejoin="miter" stroke-miterlimit="4" fill="#FEFEFF" fill-opacity="1"/><path d="M59.512 49.172C57.9534 48.6182 56.2409 49.4327 55.6871 50.9913 55.686 50.9942 55.685 50.9971 55.684 51L50 51 50 53 55.684 53C56.2359 54.5622 57.9498 55.3812 59.512 54.8293 61.0742 54.2774 61.8932 52.5635 61.3413 51.0013 61.0393 50.1465 60.3669 49.474 59.512 49.172ZM58.518 53C57.9657 53 57.518 52.5523 57.518 52 57.518 51.4477 57.9657 51 58.518 51 59.0703 51 59.518 51.4477 59.518 52 59.518 52.5523 59.0703 53 58.518 53Z" class="MsftOfcThm_Background1_Fill_v2" stroke="none" stroke-width="1" stroke-linecap="butt" stroke-linejoin="miter" stroke-miterlimit="4" fill="#FEFEFF" fill-opacity="1"/></g></svg>