<svg viewBox="0 0 96 96" xmlns="http://www.w3.org/2000/svg" xmlns:xlink="http://www.w3.org/1999/xlink" id="Icons_ClenchedFist_M" overflow="hidden"><style>
.MsftOfcThm_Text1_Fill_v2 {
 fill:#0E1F39; 
}
</style>
<defs></defs><g id="Icons"><path d="M67.563 35.581C68.8027 34.421 69.5044 32.7978 69.5 31.1L69.5 23.15C69.5005 19.754 66.748 17.0006 63.352 17 63.3513 17 63.3507 17 63.35 17L63.15 17C61.2641 17.0007 59.4833 17.8688 58.321 19.354 57.2711 17.2981 55.1585 16.003 52.85 16L52.65 16C50.0796 16.0042 47.7827 17.6056 46.89 20.016 45.729 18.7334 44.08 18.0011 42.35 18L42.15 18C39.2855 18.0051 36.8028 19.9846 36.16 22.776 35.012 21.6377 33.4607 20.9993 31.844 21L31.644 21C28.2474 21 25.494 23.7534 25.494 27.15L25.467 33.09C25.467 33.19 25.467 33.399 25.467 33.399 26 42.2 27.57 54.428 35 59.828L35 78.835 37 78.835 37 58.772 36.556 58.472C30.696 54.549 28.661 45.702 27.84 37.92 28.9207 38.7783 30.2599 39.246 31.64 39.247L31.84 39.247C33.4597 39.2478 35.0139 38.6075 36.163 37.466 36.5205 39.041 37.4869 40.4104 38.851 41.275 39.3529 44.2899 41.9586 46.5016 45.015 46.507L51.01 46.507C51.0155 46.5076 51.0195 46.5125 51.0189 46.518 51.0186 46.5203 51.0176 46.5224 51.016 46.524 48.4634 48.398 46.9655 51.3834 46.989 54.55L48.989 54.55C48.9813 50.1321 52.5561 46.5443 56.974 46.536L56.974 44.511 45.17 44.511C42.8927 44.5438 40.9748 42.8163 40.77 40.548 40.6109 38.2006 42.3849 36.1688 44.7323 36.0097 44.8277 36.0033 44.9233 36 45.019 36L62.2 36C67.019 36 71.246 40.514 71.246 45.66 71.246 50.675 68.274 55.96 63.495 59.447 63.1994 59.6735 62.9197 59.9201 62.658 60.185 62.3939 60.4606 62.1024 60.7086 61.788 60.925L61.288 61.213 61.288 79 63.288 79 63.288 62.313C63.559 62.096 63.813 61.852 64.048 61.625 64.2448 61.4259 64.4536 61.2389 64.673 61.065 69.963 57.205 73.249 51.302 73.249 45.665 73.1997 41.5533 71.0557 37.7511 67.563 35.581ZM48.5 22.151C48.5022 19.8598 50.3588 18.0028 52.65 18L52.85 18C55.1412 18.0028 56.9978 19.8598 57 22.151L57 34 48.5 34 48.5 22.151ZM35.994 33.1C35.9912 35.3908 34.1348 37.2472 31.844 37.25L31.644 37.25C29.3532 37.2472 27.4968 35.3908 27.494 33.1L27.494 27.15C27.4968 24.8592 29.3532 23.0028 31.644 23L31.844 23C34.1348 23.0028 35.9912 24.8592 35.994 27.15ZM38.955 38.746C38.3374 38.0026 37.9996 37.0665 38 36.1L38 24.151C38.0022 21.8598 39.8588 20.0028 42.15 20L42.35 20C44.6408 20.0028 46.4972 21.8592 46.5 24.15L46.5 34 45.019 34C42.1486 34.0055 39.6495 35.9619 38.955 38.747ZM60.212 34C59.4417 33.2308 59.0061 32.1886 59 31.1L59 23.15C59.0028 20.8592 60.8592 19.0028 63.15 19L63.35 19C65.6408 19.0028 67.4972 20.8592 67.5 23.15L67.5 31.1C67.5017 32.5254 66.7674 33.8507 65.558 34.605 64.4823 34.2097 63.346 34.005 62.2 34Z" class="MsftOfcThm_Text1_Fill_v2" stroke="none" stroke-width="1" stroke-linecap="butt" stroke-linejoin="miter" stroke-miterlimit="4" fill="#0E1F39" fill-opacity="1"/></g></svg>