<svg viewBox="0 0 96 96" xmlns="http://www.w3.org/2000/svg" xmlns:xlink="http://www.w3.org/1999/xlink" id="Icons_Safe_M" overflow="hidden"><style>
.MsftOfcThm_Background1_Fill_v2 {
 fill:#FEFEFF; 
}
</style>
<g id="Icons"><path d="M77 11 19 11C16.2399 11.0033 14.0033 13.2399 14 16L14 74C14.0033 76.7601 16.2399 78.9967 19 79L22 79 22 85 31 85 31 79 65 79 65 85 74 85 74 79 77 79C79.7601 78.9967 81.9967 76.7601 82 74L82 16C81.9967 13.2399 79.7601 11.0033 77 11ZM29 83 24 83 24 79 29 79ZM72 83 67 83 67 79 72 79ZM80 74C80 75.6569 78.6569 77 77 77L19 77C17.3431 77 16 75.6569 16 74L16 16C16 14.3431 17.3431 13 19 13L77 13C78.6569 13 80 14.3431 80 16Z" class="MsftOfcThm_Background1_Fill_v2" stroke="none" stroke-width="1" stroke-linecap="butt" stroke-linejoin="miter" stroke-miterlimit="4" fill="#FEFEFF" fill-opacity="1"/><path d="M22 71 74 71 74 19 22 19ZM24 21 72 21 72 69 24 69Z" class="MsftOfcThm_Background1_Fill_v2" stroke="none" stroke-width="1" stroke-linecap="butt" stroke-linejoin="miter" stroke-miterlimit="4" fill="#FEFEFF" fill-opacity="1"/><path d="M65 35C64.4477 35 64 35.4477 64 36L64 54C64 54.5523 64.4477 55 65 55 65.5523 55 66 54.5523 66 54L66 36C66 35.4477 65.5523 35 65 35Z" class="MsftOfcThm_Background1_Fill_v2" stroke="none" stroke-width="1" stroke-linecap="butt" stroke-linejoin="miter" stroke-miterlimit="4" fill="#FEFEFF" fill-opacity="1"/><path d="M39 34C32.9249 34 28 38.9249 28 45 28 51.0751 32.9249 56 39 56 45.0751 56 50 51.0751 50 45 49.9928 38.9278 45.0722 34.0072 39 34ZM39 54C34.0294 54 30 49.9706 30 45 30 40.0294 34.0294 36 39 36 43.9706 36 48 40.0294 48 45 47.9945 49.9683 43.9683 53.9945 39 54Z" class="MsftOfcThm_Background1_Fill_v2" stroke="none" stroke-width="1" stroke-linecap="butt" stroke-linejoin="miter" stroke-miterlimit="4" fill="#FEFEFF" fill-opacity="1"/><path d="M40 41.142 40 38 38 38 38 41.142C36.6007 41.5079 35.5079 42.6007 35.142 44L32 44 32 46 35.142 46C35.5079 47.3993 36.6007 48.4921 38 48.858L38 52 40 52 40 48.858C41.3993 48.4921 42.4921 47.3993 42.858 46L46 46 46 44 42.858 44C42.4921 42.6007 41.3993 41.5079 40 41.142ZM39 47C37.8954 47 37 46.1046 37 45 37 43.8954 37.8954 43 39 43 40.1046 43 41 43.8954 41 45 41 46.1046 40.1046 47 39 47Z" class="MsftOfcThm_Background1_Fill_v2" stroke="none" stroke-width="1" stroke-linecap="butt" stroke-linejoin="miter" stroke-miterlimit="4" fill="#FEFEFF" fill-opacity="1"/></g></svg>