<svg width="24" height="24" viewBox="0 -960 960 960" xmlns="http://www.w3.org/2000/svg" xmlns:xlink="http://www.w3.org/1999/xlink" fill="#E8EAED" overflow="hidden"><style>
.MsftOfcThm_Text1_Fill_v2 {
 fill:#0E1F39; 
}
</style>
<path d="M109.23-153.85 109.23-803.85 289.23-929.23 469.23-803.85 469.23-673.85 850.77-673.85 850.77-153.85 109.23-153.85ZM149.23-193.85 269.23-193.85 269.23-313.85 149.23-313.85 149.23-193.85ZM149.23-353.85 269.23-353.85 269.23-473.85 149.23-473.85 149.23-353.85ZM149.23-513.85 269.23-513.85 269.23-633.85 149.23-633.85 149.23-513.85ZM149.23-673.85 269.23-673.85 269.23-793.85 149.23-793.85 149.23-673.85ZM309.23-673.85 429.23-673.85 429.23-793.85 309.23-793.85 309.23-673.85ZM309.23-193.85 810.77-193.85 810.77-633.85 309.23-633.85 309.23-193.85ZM564.62-473.85 564.62-513.85 700-513.85 700-473.85 564.62-473.85ZM564.62-313.85 564.62-353.85 700-353.85 700-313.85 564.62-313.85ZM429.23-473.85 429.23-513.85 469.23-513.85 469.23-473.85 429.23-473.85ZM429.23-313.85 429.23-353.85 469.23-353.85 469.23-313.85 429.23-313.85Z" class="MsftOfcThm_Text1_Fill_v2" stroke="none" stroke-width="1" stroke-linecap="butt" stroke-linejoin="miter" stroke-miterlimit="4" fill="#0E1F39" fill-opacity="1"/></svg>