<svg viewBox="0 0 96 96" xmlns="http://www.w3.org/2000/svg" xmlns:xlink="http://www.w3.org/1999/xlink" id="Icons_Sunglasses" overflow="hidden"><style>
.MsftOfcThm_Accent2_Fill_v2 {
 fill:#415273; 
}
</style>
<path d="M89 35.7C78.3 33.6 64.5 32.7 52 37.7 49.4 38.6 46.6 38.6 44 37.7 31.5 32.7 17.7 33.6 7 35.7 5.4 36 4 37.1 4 38.7 4 40.4 5.3 41.7 7 41.7 7 41.7 7.9 45.7 9.3 52.2 10.7 58.7 14.2 62 25 62 30.3 62 34.2 61.8 37 59 40.5 55.4 44.4 45.9 44.4 45.9 45.1 44.6 46.5 43.8 48 43.8 49.5 43.8 50.9 44.6 51.6 45.9 51.6 45.9 55.5 55.4 59 59 61.8 61.8 65.7 62 71 62 81.8 62 85.2 58.8 86.7 52.2 88.2 45.6 89 41.8 89 41.8 90.7 41.8 92 40.5 92 38.8 92 37 90.6 36 89 35.7Z" class="MsftOfcThm_Accent2_Fill_v2" stroke="none" stroke-width="1" stroke-linecap="butt" stroke-linejoin="miter" stroke-miterlimit="4" fill="#415273" fill-opacity="1"/></svg>