<svg width="24" height="24" viewBox="0 -960 960 960" xmlns="http://www.w3.org/2000/svg" xmlns:xlink="http://www.w3.org/1999/xlink" fill="#E8EAED" overflow="hidden"><style>
.MsftOfcThm_Text1_Fill_v2 {
 fill:#0E1F39; 
}
</style>
<path d="M52-116 32-136 172-276 122-408C118.667-416 118.167-425.667 120.5-437 122.833-448.333 128-458 136-466L268-598C273.333-603.333 279-607.333 285-610 291-612.667 298-614 306-614 314-614 321-612.667 327-610 333-607.333 338.667-603.333 344-598L426-520C444.667-502 466-487.667 490-477 514-466.333 540-459.333 568-456L568-428C536.667-431.333 507-439.167 479-451.5 451-463.833 428-478.667 410-496L364-540 234-410 328-314 328-106 300-106 300-302 196-398 196-260 52-116ZM620-106 620-348 708-432 668-640C644.667-611.333 620.333-585.5 595-562.5 569.667-539.5 540.667-523.667 508-515 502-516.333 495.833-518.5 489.5-521.5 483.167-524.5 477.333-528.333 472-533 503.333-537.667 534.167-551.333 564.5-574 594.833-596.667 616.667-619.333 630-642L668-706C676-719.333 686.833-727.833 700.5-731.5 714.167-735.167 728-734 742-728L928-650 928-506 900-506 900-632 768-686 882-106 850-106 775-423 648-330 648-106 620-106ZM428-606C410-606 394.833-612.167 382.5-624.5 370.167-636.833 364-652 364-670 364-688 370.167-703.167 382.5-715.5 394.833-727.833 410-734 428-734 446-734 461.167-727.833 473.5-715.5 485.833-703.167 492-688 492-670 492-652 485.833-636.833 473.5-624.5 461.167-612.167 446-606 428-606ZM672-770C654-770 638.833-776.167 626.5-788.5 614.167-800.833 608-816 608-834 608-852 614.167-867.167 626.5-879.5 638.833-891.833 654-898 672-898 690-898 705.167-891.833 717.5-879.5 729.833-867.167 736-852 736-834 736-816 729.833-800.833 717.5-788.5 705.167-776.167 690-770 672-770Z" class="MsftOfcThm_Text1_Fill_v2" stroke="none" stroke-width="1" stroke-linecap="butt" stroke-linejoin="miter" stroke-miterlimit="4" fill="#0E1F39" fill-opacity="1"/></svg>