<svg viewBox="0 0 96 96" xmlns="http://www.w3.org/2000/svg" xmlns:xlink="http://www.w3.org/1999/xlink" id="Icons_FireExtinguisher" overflow="hidden"><style>
.MsftOfcThm_Text1_Fill_v2 {
 fill:#0E1F39; 
}
</style>
<path d="M74 24 74 12 57 14 57 15.061 48 15.061 48 10 45.92 10C45.3745 6.17269 41.8296 3.51227 38.0023 4.05778 34.175 4.6033 31.5146 8.14818 32.0601 11.9755 32.3381 13.9262 33.4254 15.6693 35.055 16.777 29.5805 18.8333 25.1055 22.9146 22.555 28.177 21.8064 29.6551 22.3977 31.4602 23.8758 32.2088 25.3539 32.9574 27.159 32.3661 27.9076 30.888 27.9262 30.8514 27.944 30.8144 27.961 30.777 30.2916 25.9828 34.7591 22.5792 40 21.605L40 24.587C34.0679 26.3556 30.0015 31.8099 30 38L30 88C30 90.2091 31.7909 92 34 92L54 92C56.2091 92 58 90.2091 58 88L58 38C57.9985 31.8099 53.9321 26.3556 48 24.587L48 21.061 57 21.061 57 22ZM39 8C40.6569 8 42 9.34315 42 11 42 12.6569 40.6569 14 39 14 37.3431 14 36 12.6569 36 11 36 9.34315 37.3431 8 39 8Z" class="MsftOfcThm_Text1_Fill_v2" stroke="none" stroke-width="1" stroke-linecap="butt" stroke-linejoin="miter" stroke-miterlimit="4" fill="#0E1F39" fill-opacity="1"/></svg>