<svg viewBox="0 0 96 96" xmlns="http://www.w3.org/2000/svg" xmlns:xlink="http://www.w3.org/1999/xlink" id="Icons_PeaceGesture_M" overflow="hidden"><style>
.MsftOfcThm_Background1_Fill_v2 {
 fill:#FEFEFF; 
}
</style>
<g id="Icons"><path d="M67.384 45.976 67.384 39.676C67.3837 37.625 67.5543 35.5776 67.894 33.555L70.878 15.778C71.1535 14.3111 70.9057 12.7941 70.178 11.491 69.2703 9.9279 67.7108 8.853 65.927 8.561L65.727 8.529C62.4281 7.99304 59.3139 10.2168 58.75 13.511L55.5 32.9C55.4127 33.4286 54.9548 33.8158 54.419 33.814L54.254 33.814C53.7175 33.8153 53.2593 33.4273 53.172 32.898L49.508 10.908C48.9525 7.6065 45.8314 5.37612 42.528 5.92L42.446 5.934C41.2258 6.1187 40.0888 6.66406 39.181 7.5 37.6943 8.88935 37.0027 10.9312 37.339 12.938L40.018 29.007C36.8697 29.0778 34.2832 31.5145 34.025 34.653 32.8915 33.5915 31.3969 33.0006 29.844 33L29.644 33C26.2473 33 23.4936 35.7533 23.493 39.15L23.493 42.343 23.46 42.343C23.46 42.709 23.478 43.097 23.493 43.485L23.493 44.1C23.4939 44.489 23.5317 44.8771 23.606 45.259 24.306 53.216 27.615 64.165 33.999 68.826L33.999 87.835 35.999 87.835 35.999 67.772 35.556 67.472C30.532 64.109 27.462 56.12 26.172 49.172 27.1932 49.8751 28.4041 50.2511 29.644 50.25L29.844 50.25C31.5778 50.2493 33.2301 49.5138 34.391 48.226 34.899 49.6095 35.8889 50.7635 37.179 51.476 38.1017 53.9013 40.4251 55.5059 43.02 55.51L49.02 55.51C49.0247 55.5083 49.0298 55.5108 49.0315 55.5155 49.0332 55.5202 49.0307 55.5253 49.026 55.527 46.4853 57.4119 44.9883 60.3895 44.991 63.553L46.991 63.553C46.9816 59.1347 50.5557 55.5454 54.974 55.536 54.975 55.536 54.976 55.536 54.977 55.536L54.977 53.536 54.971 53.536 54.971 53.511 43.21 53.511C40.9742 53.5493 39.0677 51.8992 38.785 49.681 38.5525 47.3398 40.2619 45.2534 42.6031 45.0209 42.7417 45.0071 42.8808 45.0001 43.02 45L60.2 45C65.019 45 69.245 49.514 69.245 54.66 69.245 59.675 66.274 64.96 61.495 68.447 61.205 68.657 60.374 69.089 59.767 69.404 59.372 69.604 59.014 69.796 58.788 69.925L58.288 70.213 58.288 88 60.288 88 60.288 71.389 60.688 71.179C61.3702 70.8474 62.0321 70.4754 62.67 70.065 67.959 66.205 71.244 60.302 71.244 54.665 71.21 51.3604 69.8133 48.2165 67.384 45.976ZM33.994 44.1C33.9912 46.3908 32.1348 48.2472 29.844 48.25L29.644 48.25C27.6998 48.2439 26.0197 46.8904 25.6 44.992 25.5533 44.4587 25.52 43.941 25.5 43.439L25.5 39.151C25.5022 36.8617 27.3557 35.0055 29.645 35L29.845 35C32.1358 35.0028 33.9922 36.8592 33.995 39.15ZM43.02 43C39.841 43.0041 37.1695 45.3897 36.807 48.548 36.2837 47.839 36.001 46.9812 36 46.1L36 35.151C36.0022 32.8598 37.8588 31.0028 40.15 31L40.35 31C42.6408 31.0028 44.4972 32.8592 44.5 35.15L44.5 43ZM46.5 43 46.5 35.151C46.4977 32.4238 44.7016 30.023 42.086 29.251L39.312 12.61C38.9432 10.3932 40.4412 8.29718 42.658 7.92834 42.6586 7.92822 42.6593 7.92811 42.66 7.928L42.853 7.896C45.0672 7.53277 47.1586 9.02746 47.532 11.24L51.2 33.231C51.4459 34.7258 52.7401 35.8214 54.255 35.817L54.42 35.817C55.9337 35.8215 57.2273 34.7275 57.474 33.234L60.729 13.841C61.1029 11.6327 63.1893 10.1404 65.4 10.5L65.595 10.532C67.8119 10.9003 69.3104 12.9961 68.942 15.2129 68.9417 15.2149 68.9413 15.217 68.941 15.219L65.92 33.219C65.5622 35.3524 65.3823 37.5118 65.382 39.675L65.382 44.464C63.8174 43.5196 62.0274 43.0139 60.2 43Z" class="MsftOfcThm_Background1_Fill_v2" stroke="none" stroke-width="1" stroke-linecap="butt" stroke-linejoin="miter" stroke-miterlimit="4" fill="#FEFEFF" fill-opacity="1"/></g></svg>