<svg width="24" height="24" viewBox="0 -960 960 960" xmlns="http://www.w3.org/2000/svg" xmlns:xlink="http://www.w3.org/1999/xlink" fill="#E8EAED" overflow="hidden"><style>
.MsftOfcThm_Background1_Fill_v2 {
 fill:#FEFEFF; 
}
</style>
<path d="M130-172 480-776 830-172 130-172ZM178-200 782-200 480-720 178-200ZM480-260C485.667-260 490.417-261.917 494.25-265.75 498.083-269.583 500-274.333 500-280 500-285.667 498.083-290.417 494.25-294.25 490.417-298.083 485.667-300 480-300 474.333-300 469.583-298.083 465.75-294.25 461.917-290.417 460-285.667 460-280 460-274.333 461.917-269.583 465.75-265.75 469.583-261.917 474.333-260 480-260ZM466-340 494-340 494-540 466-540 466-340Z" class="MsftOfcThm_Background1_Fill_v2" stroke="none" stroke-width="1" stroke-linecap="butt" stroke-linejoin="miter" stroke-miterlimit="4" fill="#FEFEFF" fill-opacity="1"/></svg>