<svg width="24" height="24" viewBox="0 -960 960 960" xmlns="http://www.w3.org/2000/svg" xmlns:xlink="http://www.w3.org/1999/xlink" fill="#E8EAED" overflow="hidden"><style>
.MsftOfcThm_Background1_Fill_v2 {
 fill:#FEFEFF; 
}
</style>
<path d="M414-138C372.667-146.667 334.667-161.5 300-182.5 265.333-203.5 235.5-229 210.5-259 185.5-289 166.167-322.833 152.5-360.5 138.833-398.167 132-438 132-480 132-536.667 144.5-589.5 169.5-638.5 194.5-687.5 233-730.667 285-768L159-768 159-796 334-796 334-621 306-621 306-748C256-714.667 219.167-674.667 195.5-628 171.833-581.333 160-532 160-480 160-405.333 183-338.833 229-280.5 275-222.167 336.667-184.333 414-167L414-138ZM423-332 290-465 310-485 423-372 650-599 670-579 423-332ZM626-163 626-338 654-338 654-211C703.333-245 740-285.333 764-332 788-378.667 800-428 800-480 800-554.667 777-621.167 731-679.5 685-737.833 623.333-775.667 546-793L546-822C629.333-804.667 697.167-764.5 749.5-701.5 801.833-638.5 828-564.667 828-480 828-423.333 815.5-370.333 790.5-321 765.5-271.667 727-228.333 675-191L801-191 801-163 626-163Z" class="MsftOfcThm_Background1_Fill_v2" fill="#FEFEFF"/></svg>