<svg width="24" height="24" viewBox="0 -960 960 960" xmlns="http://www.w3.org/2000/svg" xmlns:xlink="http://www.w3.org/1999/xlink" fill="#E8EAED" overflow="hidden"><style>
.MsftOfcThm_Text1_Fill_v2 {
 fill:#0E1F39; 
}
</style>
<path d="M479.84-748C554.613-748 618-722.053 670-670.16 722-618.267 748-554.933 748-480.16 748-405.387 722.053-342 670.16-290 618.267-238 554.933-212 480.16-212 405.387-212 342-237.947 290-289.84 238-341.733 212-405.067 212-479.84 212-554.613 237.947-618 289.84-670 341.733-722 405.067-748 479.84-748ZM480-240C546.667-240 603.333-263.333 650-310 696.667-356.667 720-413.333 720-480 720-546.667 696.667-603.333 650-650 603.333-696.667 546.667-720 480-720 413.333-720 356.667-696.667 310-650 263.333-603.333 240-546.667 240-480 240-413.333 263.333-356.667 310-310 356.667-263.333 413.333-240 480-240ZM480-360C507.333-360 532.333-367.167 555-381.5 577.667-395.833 594.667-415.333 606-440L354-440C365.333-415.333 382.333-395.833 405-381.5 427.667-367.167 452.667-360 480-360ZM354-559.82C354-551.273 356.893-544.167 362.68-538.5 368.46-532.833 375.627-530 384.18-530 392.727-530 399.833-532.893 405.5-538.68 411.167-544.46 414-551.627 414-560.18 414-568.727 411.107-575.833 405.32-581.5 399.54-587.167 392.373-590 383.82-590 375.273-590 368.167-587.107 362.5-581.32 356.833-575.54 354-568.373 354-559.82ZM546-559.82C546-551.273 548.893-544.167 554.68-538.5 560.46-532.833 567.627-530 576.18-530 584.727-530 591.833-532.893 597.5-538.68 603.167-544.46 606-551.627 606-560.18 606-568.727 603.107-575.833 597.32-581.5 591.54-587.167 584.373-590 575.82-590 567.273-590 560.167-587.107 554.5-581.32 548.833-575.54 546-568.373 546-559.82ZM92-720 92-808C92-824.5 97.8767-838.627 109.63-850.38 121.377-862.127 135.5-868 152-868L240-868 240-840 152-840C142.667-840 135-837 129-831 123-825 120-817.333 120-808L120-720 92-720ZM240-92 152-92C135.5-92 121.377-97.8767 109.63-109.63 97.8767-121.377 92-135.5 92-152L92-240 120-240 120-152C120-142.667 123-135 129-129 135-123 142.667-120 152-120L240-120 240-92ZM720-102 720-130 808-130C817.333-130 825-133 831-139 837-145 840-152.667 840-162L840-250 868-250 868-162C868-145.5 862.127-131.377 850.38-119.63 838.627-107.877 824.5-102 808-102L720-102ZM840-720 840-808C840-817.333 837-825 831-831 825-837 817.333-840 808-840L720-840 720-868 808-868C824.5-868 838.627-862.127 850.38-850.38 862.127-838.627 868-824.5 868-808L868-720 840-720Z" class="MsftOfcThm_Text1_Fill_v2" stroke="none" stroke-width="1" stroke-linecap="butt" stroke-linejoin="miter" stroke-miterlimit="4" fill="#0E1F39" fill-opacity="1"/></svg>