<svg width="24" height="24" viewBox="0 -960 960 960" xmlns="http://www.w3.org/2000/svg" xmlns:xlink="http://www.w3.org/1999/xlink" fill="#E8EAED" overflow="hidden"><style>
.MsftOfcThm_Background1_Fill_v2 {
 fill:#FEFEFF; 
}
</style>
<path d="M346-266 614-266 614-294 346-294 346-266ZM346-426 614-426 614-454 346-454 346-426ZM272-132C254.667-132 240.333-137.667 229-149 217.667-160.333 212-174.667 212-192L212-768C212-785.333 217.667-799.667 229-811 240.333-822.333 254.667-828 272-828L586-828 748-666 748-192C748-174.667 742.333-160.333 731-149 719.667-137.667 705.333-132 688-132L272-132ZM572-652 572-800 272-800C264-800 256.667-796.667 250-790 243.333-783.333 240-776 240-768L240-192C240-184 243.333-176.667 250-170 256.667-163.333 264-160 272-160L688-160C696-160 703.333-163.333 710-170 716.667-176.667 720-184 720-192L720-652 572-652ZM240-800 240-652 240-800 240-160 240-800Z" class="MsftOfcThm_Background1_Fill_v2" stroke="none" stroke-width="1" stroke-linecap="butt" stroke-linejoin="miter" stroke-miterlimit="4" fill="#FEFEFF" fill-opacity="1"/></svg>