<svg width="24" height="24" viewBox="0 -960 960 960" xmlns="http://www.w3.org/2000/svg" xmlns:xlink="http://www.w3.org/1999/xlink" fill="#E8EAED" overflow="hidden"><style>
.MsftOfcThm_Background1_Fill_v2 {
 fill:#FEFEFF; 
}
</style>
<path d="M398-206 206-398C201.333-371.333 199.167-339.167 199.5-301.5 199.833-263.833 202.667-233.333 208-210 227.333-204 257.667-200.5 299-199.5 340.333-198.5 373.333-200.667 398-206ZM432-212C472-218 511.333-230.167 550-248.5 588.667-266.833 620.667-288.667 646-314 670-338 691.167-369 709.5-407 727.833-445 740.667-484.667 748-526L526-748C488-742 449.833-729.5 411.5-710.5 373.167-691.5 342.333-670.333 319-647 295.667-623.667 274.5-592.833 255.5-554.5 236.5-516.167 222-475.333 212-432L432-212ZM396-376 376-396 564-584 584-564 396-376ZM754-560C758.667-590 760.833-623.667 760.5-661 760.167-698.333 757.333-728 752-750 732.667-756 702.333-759.5 661-760.5 619.667-761.5 586.667-759.333 562-754L754-560ZM319-172C288.333-172 259.333-173.833 232-177.5 204.667-181.167 189-185 185-189 181.667-193 178.667-207.333 176-232 173.333-256.667 172-282.333 172-309 172-382.333 182.833-450 204.5-512 226.167-574 256.667-624.667 296-664 335.333-703.333 386.167-733.833 448.5-755.5 510.833-777.167 579-788 653-788 681.667-788 707.167-786.5 729.5-783.5 751.833-780.5 765.333-777 770-773 776-768.333 780.5-754.167 783.5-730.5 786.5-706.833 788-681 788-653 788-577 777.333-507.833 756-445.5 734.667-383.167 704.667-332.667 666-294 627.333-255.333 577.167-225.333 515.5-204 453.833-182.667 388.333-172 319-172Z" class="MsftOfcThm_Background1_Fill_v2" fill="#FEFEFF"/></svg>