<svg width="24" height="24" viewBox="0 -960 960 960" xmlns="http://www.w3.org/2000/svg" xmlns:xlink="http://www.w3.org/1999/xlink" fill="#E8EAED" overflow="hidden"><style>
.MsftOfcThm_Background1_Fill_v2 {
 fill:#FEFEFF; 
}
</style>
<path d="M641-172 622-191 685-255 622-318 641-338 705-274 768-338 788-318 724-255 788-191 768-172 705-235 641-172ZM266-200C284-200 299.5-206.5 312.5-219.5 325.5-232.5 332-248 332-266 332-284 325.5-299.5 312.5-312.5 299.5-325.5 284-332 266-332 248-332 232.5-325.5 219.5-312.5 206.5-299.5 200-284 200-266 200-248 206.5-232.5 219.5-219.5 232.5-206.5 248-200 266-200ZM266-172C240-172 217.833-181.167 199.5-199.5 181.167-217.833 172-240 172-266 172-292 181.167-314.167 199.5-332.5 217.833-350.833 240-360 266-360 289.333-360 309.833-352.5 327.5-337.5 345.167-322.5 355.667-303.333 359-280 391.667-281.333 419.333-293.667 442-317 464.667-340.333 476-368 476-400L476-545C476-593 493-634 527-668 561-702 602-719 650-719L734-719 645-808 665-828 788-705 665-582 645-601 733-691 650-691C609.333-691 574.833-676.833 546.5-648.5 518.167-620.167 504-585.667 504-545L504-400C504-360 489.833-325.833 461.5-297.5 433.167-269.167 399-254 359-252 355.667-228.667 345.167-209.5 327.5-194.5 309.833-179.5 289.333-172 266-172ZM191-622 172-641 235-705 172-768 191-788 255-724 318-788 338-768 274-705 338-641 318-622 255-685 191-622Z" class="MsftOfcThm_Background1_Fill_v2" stroke="none" stroke-width="1" stroke-linecap="butt" stroke-linejoin="miter" stroke-miterlimit="4" fill="#FEFEFF" fill-opacity="1"/></svg>