<svg width="24" height="24" viewBox="0 -960 960 960" xmlns="http://www.w3.org/2000/svg" xmlns:xlink="http://www.w3.org/1999/xlink" fill="#E8EAED" overflow="hidden"><style>
.MsftOfcThm_Background1_Fill_v2 {
 fill:#FEFEFF; 
}
</style>
<path d="M52-262 52-288C52-311.333 64.6667-330.833 90-346.5 115.333-362.167 147.667-370 187-370 192.333-370 198.333-369.667 205-369 211.667-368.333 219-367.333 227-366 221.667-356 217.833-345.833 215.5-335.5 213.167-325.167 212-315 212-305L212-262 52-262ZM292-262 292-301C292-315.56 296.333-328.867 305-340.92 313.667-352.973 326.667-363.333 344-372 361.333-380.667 381.333-387.167 404-391.5 426.667-395.833 451.867-398 479.6-398 507.867-398 533.333-395.833 556-391.5 578.667-387.167 598.667-380.667 616-372 633.333-363.333 646.333-352.973 655-340.92 663.667-328.867 668-315.56 668-301L668-262 292-262ZM748-262 748-304.7C748-316.087 746.833-326.817 744.5-336.89 742.167-346.963 738.667-356.667 734-366 742.667-367.333 750.167-368.333 756.5-369 762.833-369.667 768.667-370 774-370 813.333-370 845.5-362.167 870.5-346.5 895.5-330.833 908-311.333 908-288L908-262 748-262ZM320-290 640-290 640-301C640-321.667 625.333-338.333 596-351 566.667-363.667 528-370 480-370 432-370 393.333-363.667 364-351 334.667-338.333 320-321.667 320-301L320-290ZM186.73-407C172.91-407 161.167-411.897 151.5-421.69 141.833-431.483 137-443.253 137-457 137-470.333 141.897-481.833 151.69-491.5 161.483-501.167 173.253-506 187-506 200.333-506 212-501.167 222-491.5 232-481.833 237-470.233 237-456.7 237-443.567 232.183-432 222.55-422 212.917-412 200.977-407 186.73-407ZM774-407C760.667-407 749-412 739-422 729-432 724-443.567 724-456.7 724-470.233 729-481.833 739-491.5 749-501.167 760.73-506 774.19-506 788.063-506 799.833-501.167 809.5-491.5 819.167-481.833 824-470.333 824-457 824-443.253 819.21-431.483 809.63-421.69 800.043-411.897 788.167-407 774-407ZM480.35-428C458.783-428 440.333-435.583 425-450.75 409.667-465.917 402-484.333 402-506 402-528.1 409.583-546.627 424.75-561.58 439.917-576.527 458.333-584 480-584 502.1-584 520.627-576.56 535.58-561.68 550.527-546.793 558-528.35 558-506.35 558-484.783 550.56-466.333 535.68-451 520.793-435.667 502.35-428 480.35-428ZM480.5-456C494.167-456 505.833-461 515.5-471 525.167-481 530-492.833 530-506.5 530-520.167 525.21-531.833 515.63-541.5 506.043-551.167 494.167-556 480-556 466.667-556 455-551.21 445-541.63 435-532.043 430-520.167 430-506 430-492.667 435-481 445-471 455-461 466.833-456 480.5-456Z" class="MsftOfcThm_Background1_Fill_v2" stroke="none" stroke-width="1" stroke-linecap="butt" stroke-linejoin="miter" stroke-miterlimit="4" fill="#FEFEFF" fill-opacity="1"/></svg>