<svg width="24" height="24" viewBox="0 -960 960 960" xmlns="http://www.w3.org/2000/svg" xmlns:xlink="http://www.w3.org/1999/xlink" fill="#E8EAED" overflow="hidden"><style>
.MsftOfcThm_Background1_Fill_v2 {
 fill:#FEFEFF; 
}
</style>
<path d="M372-101C341.333-101 314.667-110.667 292-130 269.333-149.333 254.333-173.667 247-203 239.667-189.667 229.167-179.5 215.5-172.5 201.833-165.5 187.333-162 172-162 146-162 123.833-171.14 105.5-189.42 87.1667-207.693 78-229.887 78-256 78-279.333 86.3333-300.667 103-320 119.667-339.333 140.667-348.667 166-348 151.333-360 139.667-375 131-393 122.333-411 118-429.667 118-449 118-469.847 123-489.393 133-507.64 143-525.88 157-541 175-553 176.367-548.933 178.207-544.583 180.52-539.95 182.84-535.317 185-531 187-527 173.667-517 163.667-505.11 157-491.33 150.333-477.557 147-463.113 147-448 147-405.333 162.333-377.5 193-364.5 223.667-351.5 256-341.667 290-335L296-324C288.667-302.667 282.833-284.667 278.5-270 274.167-255.333 272-241.667 272-229 272-202.6 281.587-179.5 300.76-159.7 319.94-139.9 343.353-130 371-130 400.333-130 424.333-140.5 443-161.5 461.667-182.5 477-207.5 489-236.5 501-265.5 510.333-295.5 517-326.5 523.667-357.5 529.333-383.333 534-404L562-396C556.667-370.667 550.333-341 543-307 535.667-273 525.167-240.833 511.5-210.5 497.833-180.167 479.933-154.333 457.8-133 435.667-111.667 407.067-101 372-101ZM172-190C190-190 205.5-196.5 218.5-209.5 231.5-222.5 238-238 238-256 238-274 231.5-289.5 218.5-302.5 205.5-315.5 190-322 172-322 154-322 138.5-315.5 125.5-302.5 112.5-289.5 106-274 106-256 106-238 112.5-222.5 125.5-209.5 138.5-196.5 154-190 172-190ZM403-357C377-380.333 353.167-402.167 331.5-422.5 309.833-442.833 291.083-462.833 275.25-482.5 259.423-502.167 247.257-521.833 238.75-541.5 230.25-561.167 226-581.667 226-603 226-639.02 238.33-669.357 262.99-694.01 287.643-718.67 317.98-731 354-731 362.667-731 370.5-730.5 377.5-729.5 384.5-728.5 391-727 397-725 393.667-731 391-737.227 389-743.68 387-750.127 386-756.9 386-764 386-790.113 395.127-812.307 413.38-830.58 431.633-848.86 453.8-858 479.88-858 505.96-858 528.167-848.86 546.5-830.58 564.833-812.307 574-790.113 574-764 574-756.667 573-749.833 571-743.5 569-737.167 566.333-731 563-725 569-727 575.5-728.5 582.5-729.5 589.5-730.5 597.333-731 606-731 633.333-731 657.5-723.667 678.5-709 699.5-694.333 714.667-675.333 724-652 719.427-652.667 714.283-653 708.57-653 702.857-653 697.667-652.667 693-652 685-667.333 673.333-679.667 658-689 642.667-698.333 625.48-703 606.44-703 580.813-703 560.333-696.667 545-684 529.667-671.333 510-651 486-623L473-623C448.333-651.667 428.333-672.167 413-684.5 397.667-696.833 378-703 354-703 325.173-703 301.3-693.54 282.38-674.62 263.46-655.7 254-631.827 254-603 254-587.453 257.833-571.4 265.5-554.84 273.167-538.28 284.283-520.833 298.85-502.5 313.417-484.167 331.083-464.667 351.85-444 372.617-423.333 396.333-401 423-377L403-357ZM480-698C498-698 513.5-704.5 526.5-717.5 539.5-730.5 546-746 546-764 546-782 539.5-797.5 526.5-810.5 513.5-823.5 498-830 480-830 462-830 446.5-823.5 433.5-810.5 420.5-797.5 414-782 414-764 414-746 420.5-730.5 433.5-717.5 446.5-704.5 462-698 480-698ZM585-100C577.06-100 569.213-100.72 561.46-102.16 553.7-103.6 546.213-105.88 539-109 541.62-112.433 544.24-116.477 546.86-121.13 549.48-125.79 551.86-130.08 554-134 559.5-132.207 565-130.923 570.5-130.15 576-129.383 581.5-129 587-129 614.333-129 637.833-138.87 657.5-158.61 677.167-178.343 687-201.807 687-229 687-241.467 684.833-254.917 680.5-269.35 676.167-283.783 670.333-301.667 663-323L670-334C704.667-340.667 737.167-350.667 767.5-364 797.833-377.333 813-405.333 813-448 813-482 801.167-507.333 777.5-524 753.833-540.667 727-549 697-549 670.453-549 639.483-544.667 604.09-536 568.697-527.333 528-515.333 482-500L474-528C518-542 557.747-554 593.24-564 628.74-574 661.327-579 691-579 729.667-579 764.333-567.667 795-545 825.667-522.333 841-490 841-448 841-428.953 836.833-410.857 828.5-393.71 820.167-376.57 808.667-361.333 794-348 819.333-348 840.333-338.667 857-320 873.667-301.333 882-280 882-256 882-230.667 872.833-208.667 854.5-190 836.167-171.333 814-162 788-162 772.667-162 758.167-165.5 744.5-172.5 730.833-179.5 720.333-189.667 713-203 705.667-173.667 690.333-149.167 667-129.5 643.667-109.833 616.333-100 585-100ZM789-190C807-190 822.333-196.5 835-209.5 847.667-222.5 854-238 854-256 854-274 847.5-289.667 834.5-303 821.5-316.333 806-323 788-323 770-323 754.5-316.5 741.5-303.5 728.5-290.5 722-275 722-257 722-239 728.667-223.333 742-210 755.333-196.667 771-190 789-190Z" class="MsftOfcThm_Background1_Fill_v2" fill="#FEFEFF"/></svg>