<svg width="24" height="24" viewBox="0 -960 960 960" xmlns="http://www.w3.org/2000/svg" xmlns:xlink="http://www.w3.org/1999/xlink" fill="#E8EAED" overflow="hidden"><style>
.MsftOfcThm_Text1_Fill_v2 {
 fill:#0E1F39; 
}
</style>
<path d="M480.17-132C432.057-132 386.813-141.13 344.44-159.39 302.067-177.65 265.21-202.433 233.87-233.74 202.523-265.047 177.71-301.857 159.43-344.17 141.143-386.49 132-431.71 132-479.83 132-527.943 141.13-573.187 159.39-615.56 177.65-657.933 202.433-694.79 233.74-726.13 265.047-757.477 301.857-782.29 344.17-800.57 386.49-818.857 431.71-828 479.83-828 527.943-828 573.187-818.87 615.56-800.61 657.933-782.35 694.79-757.567 726.13-726.26 757.477-694.953 782.29-658.143 800.57-615.83 818.857-573.51 828-528.29 828-480.17 828-432.057 818.87-386.813 800.61-344.44 782.35-302.067 757.567-265.21 726.26-233.87 694.953-202.523 658.143-177.71 615.83-159.43 573.51-141.143 528.29-132 480.17-132ZM480-160C568.667-160 644.167-191.167 706.5-253.5 768.833-315.833 800-391.333 800-480 800-568.667 768.833-644.167 706.5-706.5 644.167-768.833 568.667-800 480-800 391.333-800 315.833-768.833 253.5-706.5 191.167-644.167 160-568.667 160-480 160-391.333 191.167-315.833 253.5-253.5 315.833-191.167 391.333-160 480-160ZM550-537 571-549C567.667-536.333 570-525 578-515 586-505 596.667-500 610-500 621.113-500 630.557-503.89 638.33-511.67 646.11-519.443 650-528.887 650-540 650-548.667 647.5-556.5 642.5-563.5 637.5-570.5 630.667-575.333 622-578L657-598 643-623 536-562 550-537ZM410-537 424-562 317-623 303-598 338-578C329.333-575.333 322.5-570.5 317.5-563.5 312.5-556.5 310-548.667 310-540 310-528.887 313.89-519.443 321.67-511.67 329.443-503.89 338.887-500 350-500 363.333-500 374-505 382-515 390-525 392.333-536.333 389-549L410-537ZM480.22-440C441.407-440 407.167-427.833 377.5-403.5 347.833-379.167 326.333-348.667 313-312L647-312C633.667-348.667 612.24-379.167 582.72-403.5 553.2-427.833 519.033-440 480.22-440Z" class="MsftOfcThm_Text1_Fill_v2" stroke="none" stroke-width="1" stroke-linecap="butt" stroke-linejoin="miter" stroke-miterlimit="4" fill="#0E1F39" fill-opacity="1"/></svg>