<svg width="24" height="24" viewBox="0 -960 960 960" xmlns="http://www.w3.org/2000/svg" xmlns:xlink="http://www.w3.org/1999/xlink" fill="#E8EAED" overflow="hidden"><style>
.MsftOfcThm_Text1_Fill_v2 {
 fill:#0E1F39; 
}
</style>
<path d="M292-132 292-276C254-310.667 224.5-349.167 203.5-391.5 182.5-433.833 172-476.907 172-520.72 172-606.08 201.943-678.633 261.83-738.38 321.723-798.127 394.447-828 480-828 548.667-828 611.167-806.833 667.5-764.5 723.833-722.167 760.333-667.667 777-601L815.32-449.08C817.773-439.693 816-431.167 810-423.5 804-415.833 796-412 786-412L708-412 708-272C708-255.5 702.127-241.377 690.38-229.63 678.627-217.877 664.5-212 648-212L548-212 548-132 520-132 520-240 648-240C657.333-240 665-243 671-249 677-255 680-262.667 680-272L680-440 788-440 750-595C734.667-656.333 701.667-705.833 651-743.5 600.333-781.167 543.333-800 480-800 402.667-800 336.667-772.903 282-718.71 227.333-664.517 200-598.613 200-521 200-481.173 208.167-443.337 224.5-407.49 240.833-371.643 264-339.78 294-311.9L320-288 320-132 292-132ZM469.96-330C477.32-330 483.5-332.487 488.5-337.46 493.5-342.44 496-348.607 496-355.96 496-363.32 493.513-369.5 488.54-374.5 483.56-379.5 477.393-382 470.04-382 462.68-382 456.5-379.513 451.5-374.54 446.5-369.56 444-363.393 444-356.04 444-348.68 446.487-342.5 451.46-337.5 456.44-332.5 462.607-330 469.96-330ZM457-434 485-434C485-444.667 487.667-455.5 493-466.5 498.333-477.5 507.667-490 521-504 532.333-516.667 543-529.5 553-542.5 563-555.5 568-570.667 568-588 568-612.08 559.167-632.433 541.5-649.06 523.833-665.687 501-674 473-674 452.333-674 433.333-668.667 416-658 398.667-647.333 385.333-633 376-615L401-603C408.333-616.333 418.5-627 431.5-635 444.5-643 458.333-647 473-647 491.667-647 507.5-641.51 520.5-630.53 533.5-619.557 540-605.38 540-588 540-572.667 535.333-559.667 526-549 516.667-538.333 506.667-527.333 496-516 482.667-502.667 472.833-489 466.5-475 460.167-461 457-447.333 457-434Z" class="MsftOfcThm_Text1_Fill_v2" stroke="none" stroke-width="1" stroke-linecap="butt" stroke-linejoin="miter" stroke-miterlimit="4" fill="#0E1F39" fill-opacity="1"/></svg>