<svg width="24" height="24" viewBox="0 -960 960 960" xmlns="http://www.w3.org/2000/svg" xmlns:xlink="http://www.w3.org/1999/xlink" fill="#E8EAED" overflow="hidden"><style>
.MsftOfcThm_Background1_Fill_v2 {
 fill:#FEFEFF; 
}
</style>
<path d="M315-292C283.667-292 258.5-304.667 239.5-330 220.5-355.333 211.333-389 212-431L212-440 186-481C170.667-505 157.833-535.667 147.5-573 137.167-610.333 132-646 132-680 132-734 144.167-778.833 168.5-814.5 192.833-850.167 223.333-868 260-868 296-868 326.333-849.833 351-813.5 375.667-777.167 388-732.667 388-680 388-646 382.5-611.5 371.5-576.5 360.5-541.5 349.667-512.333 339-489L360-454C368.667-440 375.5-425.667 380.5-411 385.5-396.333 388-383.667 388-373 388-349.667 381.167-330.333 367.5-315 353.833-299.667 336.333-292 315-292ZM229-466 308-487C318-508.333 329.167-537.833 341.5-575.5 353.833-613.167 360-648 360-680 360-724 350.333-761.667 331-793 311.667-824.333 288-840 260-840 232-840 208.333-824.333 189-793 169.667-761.667 160-724 160-680 160-642.667 166.333-604.5 179-565.5 191.667-526.5 208.333-493.333 229-466ZM315-320C328.333-320 339.167-325 347.5-335 355.833-345 360-357.667 360-373 360-384.333 356.833-397.667 350.5-413 344.167-428.333 335-444.667 323-462L240-440C240-402.667 246.667-373.333 260-352 273.333-330.667 291.667-320 315-320ZM645-92C623.667-92 606.167-99.6667 592.5-115 578.833-130.333 572-149.667 572-173 572-183.667 574.5-196.333 579.5-211 584.5-225.667 591.333-240 600-254L621-289C611-311.667 600.333-340.667 589-376 577.667-411.333 572-446 572-480 572-532.667 584.333-577.167 609-613.5 633.667-649.833 664-668 700-668 736.667-668 767.167-650.167 791.5-614.5 815.833-578.833 828-534 828-480 828-446 823-410.667 813-374 803-337.333 790-306.333 774-281L748-240 748-230C748.667-190 739.333-157 720-131 700.667-105 675.667-92 645-92ZM727-260C755-303.333 774.167-340.667 784.5-372 794.833-403.333 800-439.333 800-480 800-524 790.333-561.667 771-593 751.667-624.333 728-640 700-640 672-640 648.333-624.333 629-593 609.667-561.667 600-524 600-480 600-448 606.333-413.333 619-376 631.667-338.667 642.667-309 652-287L727-260ZM645-120C667-120 685-130.333 699-151 713-171.667 720-199 720-233L638-263C630.667-249.667 622.5-235.167 613.5-219.5 604.5-203.833 600-188.333 600-173 600-159 604.5-146.667 613.5-136 622.5-125.333 633-120 645-120Z" class="MsftOfcThm_Background1_Fill_v2" stroke="none" stroke-width="1" stroke-linecap="butt" stroke-linejoin="miter" stroke-miterlimit="4" fill="#FEFEFF" fill-opacity="1"/></svg>