<svg width="24" height="24" viewBox="0 -960 960 960" xmlns="http://www.w3.org/2000/svg" xmlns:xlink="http://www.w3.org/1999/xlink" fill="#E8EAED" overflow="hidden"><style>
.MsftOfcThm_Text1_Fill_v2 {
 fill:#0E1F39; 
}
</style>
<path d="M312-172C295.333-172 281.167-177.833 269.5-189.5 257.833-201.167 252-215.333 252-232L252-720 212-720 212-748 360-748 360-776 600-776 600-748 748-748 748-720 708-720 708-232C708-214.667 702.333-200.333 691-189 679.667-177.667 665.333-172 648-172L312-172ZM680-720 280-720 280-232C280-222.667 283-215 289-209 295-203 302.667-200 312-200L648-200C656-200 663.333-203.333 670-210 676.667-216.667 680-224 680-232L680-720ZM402-280 430-280 430-640 402-640 402-280ZM530-280 558-280 558-640 530-640 530-280ZM280-720 280-200 280-720Z" class="MsftOfcThm_Text1_Fill_v2" fill="#0E1F39"/></svg>