<svg width="24" height="24" viewBox="0 -960 960 960" xmlns="http://www.w3.org/2000/svg" xmlns:xlink="http://www.w3.org/1999/xlink" fill="#E8EAED" overflow="hidden"><style>
.MsftOfcThm_Text1_Fill_v2 {
 fill:#0E1F39; 
}
</style>
<path d="M292-132 292-276C254-310.667 224.5-349.167 203.5-391.5 182.5-433.833 172-476.907 172-520.72 172-606.08 201.943-678.633 261.83-738.38 321.723-798.127 394.447-828 480-828 548.667-828 611.167-806.833 667.5-764.5 723.833-722.167 760.333-667.667 777-601L815.32-449.08C817.773-439.693 816-431.167 810-423.5 804-415.833 796-412 786-412L708-412 708-272C708-255.5 702.127-241.377 690.38-229.63 678.627-217.877 664.5-212 648-212L548-212 548-132 520-132 520-240 648-240C657.333-240 665-243 671-249 677-255 680-262.667 680-272L680-440 788-440 750-595C734.667-656.333 701.667-705.833 651-743.5 600.333-781.167 543.333-800 480-800 402.667-800 336.667-772.903 282-718.71 227.333-664.517 200-598.613 200-521 200-481.173 208.167-443.337 224.5-407.49 240.833-371.643 264-339.78 294-311.9L320-288 320-132 292-132ZM463-382 497-382 499-415C511-417 522.5-420.833 533.5-426.5 544.5-432.167 553.667-439.667 561-449L589-434 606-463 580-482C585.333-494.667 588-507.333 588-520 588-532.667 585.333-545.333 580-558L606-577 589-606 561-591C553.667-600.333 544.5-607.833 533.5-613.5 522.5-619.167 511-623 499-625L497-658 463-658 461-625C449-623 437.5-619.167 426.5-613.5 415.5-607.833 406.333-600.333 399-591L371-606 354-577 380-558C374.667-545.333 372-532.667 372-520 372-507.333 374.667-494.667 380-482L354-463 371-434 399-449C406.333-439.667 415.5-432.167 426.5-426.5 437.5-420.833 449-417 461-415L463-382ZM479.94-441C457.98-441 439.333-448.687 424-464.06 408.667-479.433 401-498.1 401-520.06 401-542.02 408.687-560.667 424.06-576 439.433-591.333 458.1-599 480.06-599 502.02-599 520.667-591.313 536-575.94 551.333-560.567 559-541.9 559-519.94 559-497.98 551.313-479.333 535.94-464 520.567-448.667 501.9-441 479.94-441Z" class="MsftOfcThm_Text1_Fill_v2" stroke="none" stroke-width="1" stroke-linecap="butt" stroke-linejoin="miter" stroke-miterlimit="4" fill="#0E1F39" fill-opacity="1"/></svg>