<svg width="24" height="24" viewBox="0 -960 960 960" xmlns="http://www.w3.org/2000/svg" xmlns:xlink="http://www.w3.org/1999/xlink" fill="#E8EAED" overflow="hidden"><style>
.MsftOfcThm_Text1_Fill_v2 {
 fill:#0E1F39; 
}
</style>
<path d="M149-66 261-648 129-593 129-466 101-466 101-612 278-685C294.667-692.333 310.333-694.833 325-692.5 339.667-690.167 351.667-681.333 361-666L400-603C416.667-575.667 440-552 470-532 500-512 533-500 569-496L569-468C533.667-471.333 497.333-483.833 460-505.5 422.667-527.167 390-562.333 362-611L323-412 409-328 409-66 381-66 381-289 255-410 177-66 149-66ZM375-756C357-756 341.833-762.167 329.5-774.5 317.167-786.833 311-802 311-820 311-838 317.167-853.167 329.5-865.5 341.833-877.833 357-884 375-884 393-884 408.167-877.833 420.5-865.5 432.833-853.167 439-838 439-820 439-802 432.833-786.833 420.5-774.5 408.167-762.167 393-756 375-756ZM775-62 755-82 799-126 571-126 571-154 799-154 755-198 775-218 853-140 775-62ZM655-232 577-310 655-388 675-368 631-324 859-324 859-296 631-296 675-252 655-232Z" class="MsftOfcThm_Text1_Fill_v2" stroke="none" stroke-width="1" stroke-linecap="butt" stroke-linejoin="miter" stroke-miterlimit="4" fill="#0E1F39" fill-opacity="1"/></svg>