<svg width="24" height="24" viewBox="0 -960 960 960" xmlns="http://www.w3.org/2000/svg" xmlns:xlink="http://www.w3.org/1999/xlink" fill="#E8EAED" overflow="hidden"><style>
.MsftOfcThm_Text1_Fill_v2 {
 fill:#0E1F39; 
}
</style>
<path d="M505-106 501-493 288-546 36-546 36-574 288-574 603-795 621-774 426-635 583-590 866-767 882-748 568-511 535-106 505-106ZM250-656C232.4-656 217.333-662.267 204.8-674.8 192.267-687.333 186-702.4 186-720 186-737.6 192.267-752.667 204.8-765.2 217.333-777.733 232.4-784 250-784 267.6-784 282.667-777.733 295.2-765.2 307.733-752.667 314-737.6 314-720 314-702.4 307.733-687.333 295.2-674.8 282.667-662.267 267.6-656 250-656Z" class="MsftOfcThm_Text1_Fill_v2" stroke="none" stroke-width="1" stroke-linecap="butt" stroke-linejoin="miter" stroke-miterlimit="4" fill="#0E1F39" fill-opacity="1"/></svg>