<svg width="24" height="24" viewBox="0 -960 960 960" xmlns="http://www.w3.org/2000/svg" xmlns:xlink="http://www.w3.org/1999/xlink" fill="#E8EAED" overflow="hidden"><style>
.MsftOfcThm_Text1_Fill_v2 {
 fill:#0E1F39; 
}
</style>
<path d="M252-92 152-92C134.667-92 120.333-97.6667 109-109 97.6667-120.333 92-134.667 92-152L92-252 120-252 120-152C120-142.667 123-135 129-129 135-123 142.667-120 152-120L252-120 252-92ZM708-92 708-120 808-120C817.333-120 825-123 831-129 837-135 840-142.667 840-152L840-252 868-252 868-152C868-134.667 862.333-120.333 851-109 839.667-97.6667 825.333-92 808-92L708-92ZM480-260C411.333-260 349.833-279.167 295.5-317.5 241.167-355.833 199.667-410 171-480 199.667-550 241.167-604.167 295.5-642.5 349.833-680.833 411.333-700 480-700 548.667-700 610.167-680.833 664.5-642.5 718.833-604.167 760.333-550 789-480 760.333-410 718.833-355.833 664.5-317.5 610.167-279.167 548.667-260 480-260ZM480-288C541.333-288 596-304.667 644-338 692-371.333 730-418.667 758-480 730-541.333 692-588.667 644-622 596-655.333 541.333-672 480-672 418.667-672 364-655.333 316-622 268-588.667 230-541.333 202-480 230-418.667 268-371.333 316-338 364-304.667 418.667-288 480-288ZM480-373C510-373 535.333-383.333 556-404 576.667-424.667 587-450 587-480 587-510 576.667-535.333 556-556 535.333-576.667 510-587 480-587 450-587 424.667-576.667 404-556 383.333-535.333 373-510 373-480 373-450 383.333-424.667 404-404 424.667-383.333 450-373 480-373ZM480-401C458-401 439.333-408.667 424-424 408.667-439.333 401-458 401-480 401-502 408.667-520.667 424-536 439.333-551.333 458-559 480-559 502-559 520.667-551.333 536-536 551.333-520.667 559-502 559-480 559-458 551.333-439.333 536-424 520.667-408.667 502-401 480-401ZM92-708 92-808C92-825.333 97.6667-839.667 109-851 120.333-862.333 134.667-868 152-868L252-868 252-840 152-840C142.667-840 135-837 129-831 123-825 120-817.333 120-808L120-708 92-708ZM840-708 840-808C840-817.333 837-825 831-831 825-837 817.333-840 808-840L708-840 708-868 808-868C825.333-868 839.667-862.333 851-851 862.333-839.667 868-825.333 868-808L868-708 840-708Z" class="MsftOfcThm_Text1_Fill_v2" stroke="none" stroke-width="1" stroke-linecap="butt" stroke-linejoin="miter" stroke-miterlimit="4" fill="#0E1F39" fill-opacity="1"/></svg>