<svg width="24" height="24" viewBox="0 -960 960 960" xmlns="http://www.w3.org/2000/svg" xmlns:xlink="http://www.w3.org/1999/xlink" fill="#E8EAED" overflow="hidden"><style>
.MsftOfcThm_Text1_Fill_v2 {
 fill:#0E1F39; 
}
</style>
<path d="M440-452C448-452 454.667-454.833 460-460.5 465.333-466.167 468-472.667 468-480 468-488 465.333-494.667 460-500 454.667-505.333 448-508 440-508 432.667-508 426.167-505.333 420.5-500 414.833-494.667 412-488 412-480 412-472.667 414.833-466.167 420.5-460.5 426.167-454.833 432.667-452 440-452ZM280-172 280-200 572-224 572-707C572-723.667 566.5-738 555.5-750 544.5-762 531-768.667 515-770L312-786 312-814 518-798C541.333-796 560.833-786.333 576.5-769 592.167-751.667 600-731.333 600-708L600-198 280-172ZM196-172 196-200 252-200 252-754C252-771.333 257.833-785.667 269.5-797 281.167-808.333 295.333-814 312-814L648-814C665.333-814 679.667-808.333 691-797 702.333-785.667 708-771.333 708-754L708-200 764-200 764-172 196-172ZM280-200 680-200 680-754C680-763.333 677-771 671-777 665-783 657.333-786 648-786L312-786C302.667-786 295-783 289-777 283-771 280-763.333 280-754L280-200Z" class="MsftOfcThm_Text1_Fill_v2" stroke="none" stroke-width="1" stroke-linecap="butt" stroke-linejoin="miter" stroke-miterlimit="4" fill="#0E1F39" fill-opacity="1"/></svg>