<svg width="24" height="24" viewBox="0 -960 960 960" xmlns="http://www.w3.org/2000/svg" xmlns:xlink="http://www.w3.org/1999/xlink" fill="#E8EAED" overflow="hidden"><style>
.MsftOfcThm_Text1_Fill_v2 {
 fill:#0E1F39; 
}
</style>
<path d="M240.12-66C214.04-66 191.833-75.1267 173.5-93.38 155.167-111.633 146-133.8 146-159.88 146-185.96 155.143-208.167 173.43-226.5 191.71-244.833 213.91-254 240.03-254 247.343-254 255.333-252.833 264-250.5 272.667-248.167 280.667-245 288-241L403-384C389.667-398 380.667-413.333 376-430 371.333-446.667 370.667-463.667 374-481L204-537C196-521.667 184.57-509.333 169.71-500 154.857-490.667 138.287-486 120-486 93.8867-486 71.6933-495.127 53.42-513.38 35.14-531.633 26-553.8 26-579.88 26-605.96 35.1267-628.167 53.38-646.5 71.6333-664.833 93.8-674 119.88-674 145.96-674 168.167-664.86 186.5-646.58 204.833-628.307 214-606.113 214-580 214-576 213.833-573 213.5-571 213.167-569 213-567 213-565L382-506C389.333-520.667 400.167-533.667 414.5-545 428.833-556.333 446-563.667 466-567L466-747C440.667-751 421-762.167 407-780.5 393-798.833 386-818.803 386-840.41 386-866.137 395.127-888.167 413.38-906.5 431.633-924.833 453.8-934 479.88-934 505.96-934 528.167-924.86 546.5-906.58 564.833-888.307 574-866.113 574-840 574-818.667 567-798.833 553-780.5 539-762.167 519.333-751 494-747L494-567C514-563.667 531-556.333 545-545 559-533.667 570-520.667 578-506L747-565C746.333-567.667 746-569.833 746-571.5L746-580C746-606.113 755.127-628.307 773.38-646.58 791.633-664.86 813.8-674 839.88-674 865.96-674 888.167-664.873 906.5-646.62 924.833-628.367 934-606.2 934-580.12 934-554.04 924.86-531.833 906.58-513.5 888.307-495.167 866.113-486 840-486 821.927-486 805.41-490.667 790.45-500 775.483-509.333 764-521.667 756-537L586-481C589.333-463.667 588.667-446.667 584-430 579.333-413.333 570.333-398.333 557-385L672-242C679.333-245.333 687.333-248.167 696-250.5 704.667-252.833 712.657-254 719.97-254 746.09-254 768.29-244.873 786.57-226.62 804.857-208.367 814-186.2 814-160.12 814-134.04 804.873-111.833 786.62-93.5 768.367-75.1667 746.2-66 720.12-66 694.04-66 671.833-75.14 653.5-93.42 635.167-111.693 626-133.887 626-160 626-171.46 627.833-182.493 631.5-193.1 635.167-203.7 641.667-213.667 651-223L536-368C520.667-357.333 502.167-352 480.5-352 458.833-352 440-357.333 424-368L309-223C317.667-213.667 324-203.7 328-193.1 332-182.493 334-171.46 334-160 334-133.887 324.873-111.693 306.62-93.42 288.367-75.14 266.2-66 240.12-66ZM120-514C138-514 153.5-520.5 166.5-533.5 179.5-546.5 186-562 186-580 186-598 179.5-613.5 166.5-626.5 153.5-639.5 138-646 120-646 102-646 86.5-639.5 73.5-626.5 60.5-613.5 54-598 54-580 54-562 60.5-546.5 73.5-533.5 86.5-520.5 102-514 120-514ZM240-94C258-94 273.5-100.5 286.5-113.5 299.5-126.5 306-142 306-160 306-178 299.5-193.5 286.5-206.5 273.5-219.5 258-226 240-226 222-226 206.5-219.5 193.5-206.5 180.5-193.5 174-178 174-160 174-142 180.5-126.5 193.5-113.5 206.5-100.5 222-94 240-94ZM480-774C498-774 513.5-780.5 526.5-793.5 539.5-806.5 546-822 546-840 546-858 539.5-873.5 526.5-886.5 513.5-899.5 498-906 480-906 462-906 446.5-899.5 433.5-886.5 420.5-873.5 414-858 414-840 414-822 420.5-806.5 433.5-793.5 446.5-780.5 462-774 480-774ZM480-380C502-380 520.833-387.833 536.5-403.5 552.167-419.167 560-438 560-460 560-482 552.167-500.833 536.5-516.5 520.833-532.167 502-540 480-540 458-540 439.167-532.167 423.5-516.5 407.833-500.833 400-482 400-460 400-438 407.833-419.167 423.5-403.5 439.167-387.833 458-380 480-380ZM720-94C738-94 753.5-100.5 766.5-113.5 779.5-126.5 786-142 786-160 786-178 779.5-193.5 766.5-206.5 753.5-219.5 738-226 720-226 702-226 686.5-219.5 673.5-206.5 660.5-193.5 654-178 654-160 654-142 660.5-126.5 673.5-113.5 686.5-100.5 702-94 720-94ZM840-514C858-514 873.5-520.5 886.5-533.5 899.5-546.5 906-562 906-580 906-598 899.5-613.5 886.5-626.5 873.5-639.5 858-646 840-646 822-646 806.5-639.5 793.5-626.5 780.5-613.5 774-598 774-580 774-562 780.5-546.5 793.5-533.5 806.5-520.5 822-514 840-514Z" class="MsftOfcThm_Text1_Fill_v2" stroke="none" stroke-width="1.02694" stroke-linecap="butt" stroke-linejoin="miter" stroke-miterlimit="4" fill="#0E1F39" fill-opacity="1"/></svg>