<svg width="24" height="24" viewBox="0 -960 960 960" xmlns="http://www.w3.org/2000/svg" xmlns:xlink="http://www.w3.org/1999/xlink" fill="#E8EAED" overflow="hidden"><style>
.MsftOfcThm_Text1_Fill_v2 {
 fill:#0E1F39; 
}
</style>
<path d="M440-360 520-360 520-460 620-460 620-540 520-540 520-640 440-640 440-540 340-540 340-460 440-460 440-360ZM480-121.54C399.64-145.387 332.883-194.067 279.73-267.58 226.577-341.093 200-423.9 200-516L200-732.31 480-836.92 760-732.31 760-516C760-423.9 733.423-341.093 680.27-267.58 627.117-194.067 560.36-145.387 480-121.54ZM480-164C549.333-186 606.667-230 652-296 697.333-362 720-435.333 720-516L720-705 480-794.23 240-705 240-516C240-435.333 262.667-362 308-296 353.333-230 410.667-186 480-164Z" class="MsftOfcThm_Text1_Fill_v2" stroke="none" stroke-width="1" stroke-linecap="butt" stroke-linejoin="miter" stroke-miterlimit="4" fill="#0E1F39" fill-opacity="1"/></svg>