<svg width="24" height="24" viewBox="0 -960 960 960" xmlns="http://www.w3.org/2000/svg" xmlns:xlink="http://www.w3.org/1999/xlink" fill="#E8EAED" overflow="hidden"><style>
.MsftOfcThm_Text1_Fill_v2 {
 fill:#0E1F39; 
}
</style>
<path d="M644.46-160 616.92-187.54 679.92-251.54 616.92-314.54 644.46-343.08 708.46-279.08 771.46-343.08 800-314.54 736-251.54 800-187.54 771.46-160 708.46-223 644.46-160ZM260-200C276.46-200 290.577-205.883 302.35-217.65 314.117-229.423 320-243.54 320-260 320-276.46 314.117-290.577 302.35-302.35 290.577-314.117 276.46-320 260-320 243.54-320 229.423-314.117 217.65-302.35 205.883-290.577 200-276.46 200-260 200-243.54 205.883-229.423 217.65-217.65 229.423-205.883 243.54-200 260-200ZM260-160C232.307-160 208.717-169.743 189.23-189.23 169.743-208.717 160-232.307 160-260 160-287.693 169.743-311.283 189.23-330.77 208.717-350.257 232.307-360 260-360 283.64-360 304.6-352.653 322.88-337.96 341.167-323.267 352.667-304.253 357.38-280.92 388.513-283.64 414.68-296.437 435.88-319.31 457.087-342.183 467.69-369.08 467.69-400L467.69-548.46C467.69-598.153 485.267-640.577 520.42-675.73 555.573-710.883 597.997-728.46 647.69-728.46L722.92-728.46 639.92-811.46 668.46-840 800-708.46 668.46-576.92 639.92-604.46 722.15-688.46 647.69-688.46C608.717-688.46 575.64-674.87 548.46-647.69 521.28-620.51 507.69-587.433 507.69-548.46L507.69-400C507.69-358 493.177-321.833 464.15-291.5 435.13-261.167 399.697-244.23 357.85-240.69 353.437-217.05 342.013-197.693 323.58-182.62 305.14-167.54 283.947-160 260-160ZM187.54-616.92 160-644.46 223-708.46 160-771.46 187.54-800 251.54-736 314.54-800 343.08-771.46 279.08-708.46 343.08-644.46 314.54-616.92 251.54-679.92 187.54-616.92Z" class="MsftOfcThm_Text1_Fill_v2" stroke="none" stroke-width="1" stroke-linecap="butt" stroke-linejoin="miter" stroke-miterlimit="4" fill="#0E1F39" fill-opacity="1"/></svg>