<svg width="24" height="24" viewBox="0 -960 960 960" xmlns="http://www.w3.org/2000/svg" xmlns:xlink="http://www.w3.org/1999/xlink" fill="#E8EAED" overflow="hidden"><style>
.MsftOfcThm_Text1_Fill_v2 {
 fill:#0E1F39; 
}
</style>
<path d="M217-197 197-217 606-626 414-626 414-546 386-546 386-654 637-654 762-529C781.333-509.667 803-494.167 827-482.5 851-470.833 876.667-465 904-465L904-437C872.667-437 843.333-443.667 816-457 788.667-470.333 764-488 742-510L688-564 553-430 638-345 428-223 414-249 591-351 481-461 217-197ZM172-466 172-494 320-494 320-466 172-466ZM92-586 92-614 240-614 240-586 92-586ZM779-666C763.667-666 750.667-671.333 740-682 729.333-692.667 724-705.667 724-721 724-736.333 729.333-749.333 740-760 750.667-770.667 763.667-776 779-776 794.333-776 807.333-770.667 818-760 828.667-749.333 834-736.333 834-721 834-705.667 828.667-692.667 818-682 807.333-671.333 794.333-666 779-666ZM172-706 172-734 320-734 320-706 172-706Z" class="MsftOfcThm_Text1_Fill_v2" stroke="none" stroke-width="1" stroke-linecap="butt" stroke-linejoin="miter" stroke-miterlimit="4" fill="#0E1F39" fill-opacity="1"/></svg>