<svg width="24" height="24" viewBox="0 -960 960 960" xmlns="http://www.w3.org/2000/svg" xmlns:xlink="http://www.w3.org/1999/xlink" fill="#E8EAED" overflow="hidden"><style>
.MsftOfcThm_Text1_Fill_v2 {
 fill:#0E1F39; 
}
</style>
<path d="M305-358C326.333-358 345.833-364.333 363.5-377 381.167-389.667 393.667-406.333 401-427L413-466C424.333-500 421.167-531.167 403.5-559.5 385.833-587.833 361-602 329-602L186-602 205-446C208.333-420.667 219.5-399.667 238.5-383 257.5-366.333 279.667-358 305-358ZM655-358C680.333-358 702.5-366.333 721.5-383 740.5-399.667 751.667-420.667 755-446L774-602 632-602C600-602 575-587.833 557-559.5 539-531.167 535.667-500 547-466L559-427C566.333-406.333 578.833-389.667 596.5-377 614.167-364.333 633.667-358 655-358ZM305-330C273-330 244.833-340.667 220.5-362 196.167-383.333 182-410.333 178-443L158-602 126-602 126-630 329-630C350.333-630 370.333-624 389-612 407.667-600 423-583.333 435-562L526-562C538-583.333 553.333-600 572-612 590.667-624 610.667-630 632-630L834-630 834-602 802-602 782-443C778-410.333 763.833-383.333 739.5-362 715.167-340.667 687-330 655-330 627-330 602-338 580-354 558-370 542.333-391 533-417L521-456C519-462.667 517.333-469.667 516-477 514.667-484.333 513.333-495.333 512-510L448-510C446.667-496.667 445.333-486.167 444-478.5 442.667-470.833 441-463.667 439-457L427-418C418.333-392 402.833-370.833 380.5-354.5 358.167-338.167 333-330 305-330Z" class="MsftOfcThm_Text1_Fill_v2" stroke="none" stroke-width="1" stroke-linecap="butt" stroke-linejoin="miter" stroke-miterlimit="4" fill="#0E1F39" fill-opacity="1"/></svg>