<svg width="24" height="24" viewBox="0 -960 960 960" xmlns="http://www.w3.org/2000/svg" xmlns:xlink="http://www.w3.org/1999/xlink" fill="#E8EAED" overflow="hidden"><style>
.MsftOfcThm_Text1_Fill_v2 {
 fill:#0E1F39; 
}
</style>
<path d="M480-124C462.667-124 447.5-129.667 434.5-141 421.5-152.333 413.333-166.667 410-184L550-184C546.667-166.667 538.5-152.333 525.5-141 512.5-129.667 497.333-124 480-124ZM480-800C450-800 421.333-794.167 394-782.5 366.667-770.833 343.333-755.333 324-736L304-756C330-780 357.333-798 386-810 414.667-822 446-828 480-828 549.333-828 608-804 656-756 704-708 728-649.333 728-580 728-542 721.167-509 707.5-481 693.833-453 676-427.333 654-404L634-424C650-439.333 665-460.167 679-486.5 693-512.833 700-544 700-580 700-641.333 678.667-693.333 636-736 593.333-778.667 541.333-800 480-800ZM794-152 774-132 534-372 346-372C310.667-396 282.833-425.833 262.5-461.5 242.167-497.167 232-536.667 232-580 232-594 233.333-608.833 236-624.5 238.667-640.167 242-652 246-660L122-784 142-804 794-152ZM354-400 506-400 268-638C266-630.667 264.167-621.5 262.5-610.5 260.833-599.5 260-589.333 260-580 260-544 268.167-510.333 284.5-479 300.833-447.667 324-421.333 354-400ZM614-292 614-264 346-264 346-292 614-292Z" class="MsftOfcThm_Text1_Fill_v2" stroke="none" stroke-width="1" stroke-linecap="butt" stroke-linejoin="miter" stroke-miterlimit="4" fill="#0E1F39" fill-opacity="1"/></svg>