<svg width="24" height="24" viewBox="0 -960 960 960" xmlns="http://www.w3.org/2000/svg" xmlns:xlink="http://www.w3.org/1999/xlink" fill="#E8EAED" overflow="hidden"><style>
.MsftOfcThm_Text1_Fill_v2 {
 fill:#0E1F39; 
}
</style>
<path d="M880-443.08 697-443.08C695-450.413 692.73-457.283 690.19-463.69 687.65-470.103 684.587-476.567 681-483.08L839.31-483.08C838.183-494.413 835.31-503.67 830.69-510.85 826.077-518.03 818.873-523.977 809.08-528.69 788.667-539.717 766.91-547.82 743.81-553 720.703-558.18 696.1-560.77 670-560.77 661.127-560.77 652.293-560.387 643.5-559.62 634.707-558.847 625.873-557.433 617-555.38 609.94-562.027 602.267-567.803 593.98-572.71 585.687-577.623 576.82-582.027 567.38-585.92 583.74-590.793 600.423-594.487 617.43-597 634.43-599.513 651.953-600.77 670-600.77 699.18-600.77 727.307-597.617 754.38-591.31 781.46-585.003 807.05-575.617 831.15-563.15 847.97-554.33 860.317-543.063 868.19-529.35 876.063-515.63 880-498.64 880-478.38L880-443.08ZM670.05-646.15C643.35-646.15 620.64-655.573 601.92-674.42 583.207-693.267 573.85-716.153 573.85-743.08 573.85-770 583.193-792.883 601.88-811.73 620.567-830.577 643.257-840 669.95-840 696.65-840 719.36-830.577 738.08-811.73 756.793-792.883 766.15-770 766.15-743.08 766.15-716.153 756.807-693.267 738.12-674.42 719.433-655.573 696.743-646.15 670.05-646.15ZM670.04-686.15C685.96-686.15 699.293-691.59 710.04-702.47 720.78-713.343 726.15-726.817 726.15-742.89 726.15-758.963 720.767-772.5 710-783.5 699.227-794.5 685.88-800 669.96-800 654.04-800 640.707-794.563 629.96-783.69 619.22-772.817 613.85-759.343 613.85-743.27 613.85-727.19 619.233-713.65 630-702.65 640.773-691.65 654.12-686.15 670.04-686.15ZM80-443.08 80-478.38C80-498.64 83.9367-515.63 91.81-529.35 99.6833-543.063 112.03-554.33 128.85-563.15 152.95-575.617 178.54-585.003 205.62-591.31 232.693-597.617 260.82-600.77 290-600.77 308.047-600.77 325.57-599.513 342.57-597 359.577-594.487 376.26-590.793 392.62-585.92 383.18-582.027 374.313-577.623 366.02-572.71 357.733-567.803 350.06-562.027 343-555.38 334.127-557.433 325.293-558.847 316.5-559.62 307.707-560.387 298.873-560.77 290-560.77 263.9-560.77 239.297-558.18 216.19-553 193.09-547.82 171.333-539.717 150.92-528.69 141.127-523.977 133.923-518.03 129.31-510.85 124.69-503.67 121.817-494.413 120.69-483.08L279-483.08C275.413-476.567 272.35-470.103 269.81-463.69 267.27-457.283 265-450.413 263-443.08L80-443.08ZM290.05-646.15C263.35-646.15 240.64-655.573 221.92-674.42 203.207-693.267 193.85-716.153 193.85-743.08 193.85-770 203.193-792.883 221.88-811.73 240.567-830.577 263.257-840 289.95-840 316.65-840 339.36-830.577 358.08-811.73 376.793-792.883 386.15-770 386.15-743.08 386.15-716.153 376.807-693.267 358.12-674.42 339.433-655.573 316.743-646.15 290.05-646.15ZM290.04-686.15C305.96-686.15 319.293-691.59 330.04-702.47 340.78-713.343 346.15-726.817 346.15-742.89 346.15-758.963 340.767-772.5 330-783.5 319.227-794.5 305.88-800 289.96-800 274.04-800 260.707-794.563 249.96-783.69 239.22-772.817 233.85-759.343 233.85-743.27 233.85-727.19 239.233-713.65 250-702.65 260.773-691.65 274.12-686.15 290.04-686.15ZM480-313.08C463.64-313.08 449.933-318.733 438.88-330.04 427.833-341.347 422.31-355.18 422.31-371.54L422.31-486.92C422.31-503.28 427.833-517.113 438.88-528.42 449.933-539.727 463.64-545.38 480-545.38 496.36-545.38 510.067-539.727 521.12-528.42 532.167-517.113 537.69-503.28 537.69-486.92L537.69-371.54C537.69-355.18 532.167-341.347 521.12-330.04 510.067-318.733 496.36-313.08 480-313.08ZM462.31-120 462.31-198.15C418.923-202.41 382.437-221.027 352.85-254 323.257-286.973 308.46-326.153 308.46-371.54L343.08-371.54C343.08-332.873 356.36-300 382.92-272.92 409.487-245.847 441.847-232.31 480-232.31 518.153-232.31 550.513-245.9 577.08-273.08 603.64-300.267 616.92-333.087 616.92-371.54L652.31-371.54C652.31-326.153 637.387-286.973 607.54-254 577.693-221.027 541.077-202.41 497.69-198.15L497.69-120 462.31-120Z" class="MsftOfcThm_Text1_Fill_v2" stroke="none" stroke-width="1" stroke-linecap="butt" stroke-linejoin="miter" stroke-miterlimit="4" fill="#0E1F39" fill-opacity="1"/></svg>