<svg width="24" height="24" viewBox="0 -960 960 960" xmlns="http://www.w3.org/2000/svg" xmlns:xlink="http://www.w3.org/1999/xlink" fill="#E8EAED" overflow="hidden"><style>
.MsftOfcThm_Text1_Fill_v2 {
 fill:#0E1F39; 
}
</style>
<path d="M563.08-180.23 563.08-222.23C618.46-241.617 663.073-274.95 696.92-322.23 730.767-369.51 747.69-422.433 747.69-481 747.69-539.567 730.767-592.49 696.92-639.77 663.073-687.05 618.46-720.383 563.08-739.77L563.08-781.77C629.333-760.537 683.333-722.42 725.08-667.42 766.82-612.42 787.69-550.28 787.69-481 787.69-411.72 766.82-349.58 725.08-294.58 683.333-239.58 629.333-201.463 563.08-180.23ZM172.31-400 172.31-560 309.23-560 452.31-703.08 452.31-256.92 309.23-400 172.31-400ZM563.08-347.69 563.08-614.31C585.693-599.643 602.883-580.333 614.65-556.38 626.423-532.433 632.31-506.973 632.31-480 632.31-453.18 626.297-428.09 614.27-404.73 602.243-381.37 585.18-362.357 563.08-347.69ZM412.31-606 326.31-520 212.31-520 212.31-440 326.31-440 412.31-354 412.31-606Z" class="MsftOfcThm_Text1_Fill_v2" stroke="none" stroke-width="1" stroke-linecap="butt" stroke-linejoin="miter" stroke-miterlimit="4" fill="#0E1F39" fill-opacity="1"/></svg>