<svg viewBox="0 0 96 96" xmlns="http://www.w3.org/2000/svg" xmlns:xlink="http://www.w3.org/1999/xlink" id="Icons_PocketKnife" overflow="hidden"><style>
.MsftOfcThm_Text1_Fill_v2 {
 fill:#0E1F39; 
}
</style>
<path d="M79.4 60.9C77.7 60.9 76.4 59.6 76.4 57.9 76.4 56.2 77.7 54.9 79.4 54.9 81.1 54.9 82.4 56.2 82.4 57.9 82.4 58.7 82.1 59.5 81.5 60 80.9 60.6 80.2 60.9 79.4 60.9ZM91.3 56.4C90.5 50.4 85.4 45.9 79.4 45.9L23.4 45.9C16.8 45.9 11.4 51.3 11.4 57.9 11.4 64.5 16.8 69.9 23.4 69.9L33.4 69.9 33.4 65.9C33.4 64.8 34.3 63.9 35.4 63.9 36.5 63.9 37.4 64.8 37.4 65.9L37.4 69.9 41.4 69.9 41.4 65.9C41.4 64.8 42.3 63.9 43.4 63.9 44.5 63.9 45.4 64.8 45.4 65.9L45.4 69.9 49.4 69.9 49.4 65.9C49.4 64.8 50.3 63.9 51.4 63.9 52.5 63.9 53.4 64.8 53.4 65.9L53.4 69.9 57.4 69.9 57.4 65.9C57.4 64.8 58.3 63.9 59.4 63.9 60.5 63.9 61.4 64.8 61.4 65.9L61.4 69.9 65.4 69.9 65.4 65.9C65.4 64.8 66.3 63.9 67.4 63.9 68.5 63.9 69.4 64.8 69.4 65.9L69.4 69.9 79.4 69.9C82.9 69.9 86.1 68.4 88.4 65.8 90.7 63.2 91.7 59.8 91.3 56.4Z" class="MsftOfcThm_Text1_Fill_v2" fill="#0E1F39"/><path d="M44.6 20.6 20 9.9 22 14.3C26.2 24.9 37.7 34.6 48.3 41.9L75.1 41.9 44.6 20.6Z" class="MsftOfcThm_Text1_Fill_v2" fill="#0E1F39"/></svg>