<svg width="24" height="24" viewBox="0 -960 960 960" xmlns="http://www.w3.org/2000/svg" xmlns:xlink="http://www.w3.org/1999/xlink" fill="#E8EAED" overflow="hidden"><style>
.MsftOfcThm_Text1_Fill_v2 {
 fill:#0E1F39; 
}
</style>
<path d="M280-120 280-270.46C242-305.127 212.5-344.09 191.5-387.35 170.5-430.603 160-475.007 160-520.56 160-609.293 191.11-684.717 253.33-746.83 315.557-808.943 391.113-840 480-840 552.053-840 617.17-818.063 675.35-774.19 733.53-730.317 771.26-673.663 788.54-604.23L830.01-440.06C832.67-429.92 830.77-420.707 824.31-412.42 817.85-404.14 809.233-400 798.46-400L720-400 720-264.62C720-246.847 713.673-231.633 701.02-218.98 688.367-206.327 673.153-200 655.38-200L560-200 560-120 520-120 520-240 655.38-240C662.56-240 668.46-242.307 673.08-246.92 677.693-251.54 680-257.44 680-264.62L680-440 788-440 750-595C734.667-656.18 701.743-705.64 651.23-743.38 600.717-781.127 543.64-800 480-800 402.667-800 336.667-772.927 282-718.78 227.333-664.627 200-598.777 200-521.23 200-481.363 208.167-443.49 224.5-407.61 240.833-371.723 264-339.827 294-311.92L320-288 320-120 280-120ZM457.69-376.92 502.31-376.92 505.23-413.85C515.69-415.85 525.653-419.337 535.12-424.31 544.58-429.283 552.513-435.743 558.92-443.69L591.08-427.54 613.38-465.54 584.15-487.08C588.563-498.053 590.77-509.027 590.77-520 590.77-530.973 588.563-541.947 584.15-552.92L613.38-574.46 591.08-612.46 558.92-596.31C552.513-604.257 544.58-610.717 535.12-615.69 525.653-620.663 515.69-624.15 505.23-626.15L502.31-663.08 457.69-663.08 454.77-626.15C444.31-624.15 434.347-620.663 424.88-615.69 415.42-610.717 407.487-604.257 401.08-596.31L368.92-612.46 346.62-574.46 375.85-552.92C371.437-541.947 369.23-530.973 369.23-520 369.23-509.027 371.437-498.053 375.85-487.08L346.62-465.54 368.92-427.54 401.08-443.69C407.487-435.743 415.42-429.283 424.88-424.31 434.347-419.337 444.31-415.85 454.77-413.85L457.69-376.92ZM479.95-445.38C459.217-445.38 441.607-452.64 427.12-467.16 412.627-481.68 405.38-499.31 405.38-520.05 405.38-540.783 412.64-558.393 427.16-572.88 441.68-587.373 459.31-594.62 480.05-594.62 500.783-594.62 518.393-587.36 532.88-572.84 547.373-558.32 554.62-540.69 554.62-519.95 554.62-499.217 547.36-481.607 532.84-467.12 518.32-452.627 500.69-445.38 479.95-445.38Z" class="MsftOfcThm_Text1_Fill_v2" stroke="none" stroke-width="1" stroke-linecap="butt" stroke-linejoin="miter" stroke-miterlimit="4" fill="#0E1F39" fill-opacity="1"/></svg>