<svg width="24" height="24" viewBox="0 -960 960 960" xmlns="http://www.w3.org/2000/svg" xmlns:xlink="http://www.w3.org/1999/xlink" fill="#E8EAED" overflow="hidden"><style>
.MsftOfcThm_Text1_Fill_v2 {
 fill:#0E1F39; 
}
</style>
<path d="M520-149.23 517.69-240 460-240C376.613-240 305.767-269.153 247.46-327.46 189.153-385.767 160-456.613 160-540 160-623.387 189.153-694.233 247.46-752.54 305.767-810.847 376.613-840 460-840 501.693-840 540.733-832.193 577.12-816.58 613.5-800.96 645.267-779.573 672.42-752.42 699.573-725.267 720.96-693.5 736.58-657.12 752.193-620.733 760-581.693 760-540 760-499.233 754.013-460.08 742.04-422.54 730.067-385 713.503-349.513 692.35-316.08 671.197-282.64 645.863-251.843 616.35-223.69 586.837-195.537 554.72-170.717 520-149.23ZM560-226C607.333-266 645.833-312.833 675.5-366.5 705.167-420.167 720-478 720-540 720-612.667 694.833-674.167 644.5-724.5 594.167-774.833 532.667-800 460-800 387.333-800 325.833-774.833 275.5-724.5 225.167-674.167 200-612.667 200-540 200-467.333 225.167-405.833 275.5-355.5 325.833-305.167 387.333-280 460-280L560-280 560-226ZM461.31-337.15C469.563-337.15 476.537-339.997 482.23-345.69 487.923-351.383 490.77-358.36 490.77-366.62 490.77-374.873 487.923-381.847 482.23-387.54 476.537-393.233 469.563-396.08 461.31-396.08 453.05-396.08 446.073-393.233 440.38-387.54 434.693-381.847 431.85-374.873 431.85-366.62 431.85-358.36 434.693-351.383 440.38-345.69 446.073-339.997 453.05-337.15 461.31-337.15ZM443.85-454.15 479.23-454.15C480.257-470.563 483.41-483.54 488.69-493.08 493.977-502.613 506.517-517.28 526.31-537.08 537.797-548.567 546.9-560.283 553.62-572.23 560.333-584.177 563.69-597.893 563.69-613.38 563.69-642.253 553.73-664.933 533.81-681.42 513.883-697.907 489.793-706.15 461.54-706.15 436.82-706.15 415.87-699.393 398.69-685.88 381.51-672.373 368.92-656.26 360.92-637.54L393.85-624.77C399.23-636.617 407.1-647.4 417.46-657.12 427.82-666.833 442.513-671.69 461.54-671.69 484.153-671.69 500.857-665.537 511.65-653.23 522.45-640.923 527.85-627.487 527.85-612.92 527.85-599.54 524.387-588.22 517.46-578.96 510.54-569.707 501.643-559.643 490.77-548.77 471.537-531.843 458.907-516.65 452.88-503.19 446.86-489.73 443.85-473.383 443.85-454.15Z" class="MsftOfcThm_Text1_Fill_v2" stroke="none" stroke-width="1" stroke-linecap="butt" stroke-linejoin="miter" stroke-miterlimit="4" fill="#0E1F39" fill-opacity="1"/></svg>