<svg width="24" height="24" viewBox="0 -960 960 960" xmlns="http://www.w3.org/2000/svg" xmlns:xlink="http://www.w3.org/1999/xlink" fill="#E8EAED" overflow="hidden"><style>
.MsftOfcThm_Text1_Fill_v2 {
 fill:#0E1F39; 
}
</style>
<path d="M460-120 460-268.46C460-304.767 454.847-333.46 444.54-354.54 434.233-375.613 418.72-395.073 398-412.92L426.54-441.46C435.567-433.1 444.9-422.703 454.54-410.27 464.18-397.837 472.667-384.643 480-370.69 487.793-386.95 498.063-402.477 510.81-417.27 523.55-432.063 536.973-445.667 551.08-458.08 584.613-487.567 611.203-524.053 630.85-567.54 650.49-611.027 659.95-675.973 659.23-762.38L576.23-679.38 547.69-707.69 680-840 812.31-707.69 784-679.38 699.23-763.92C699.95-674.227 689.513-604.6 667.92-555.04 646.333-505.473 616.667-463.41 578.92-428.85 556.053-407.977 537.183-387.22 522.31-366.58 507.437-345.94 500-313.233 500-268.46L500-120 460-120ZM270.31-635.31C267.13-649.157 264.783-668.18 263.27-692.38 261.757-716.587 260.923-740.433 260.77-763.92L176-679.38 147.69-707.69 280-840 412.31-707.69 383.77-679.38 300.77-762.15C300.257-739.95 300.793-718.193 302.38-696.88 303.973-675.573 306.207-658.05 309.08-644.31L270.31-635.31ZM344.77-466.23C334.003-479.203 323.477-494.383 313.19-511.77 302.91-529.157 294.897-546.13 289.15-562.69L327.69-572.46C332.31-559.587 338.567-546.177 346.46-532.23 354.36-518.283 363.31-505.797 373.31-494.77L344.77-466.23Z" class="MsftOfcThm_Text1_Fill_v2" stroke="none" stroke-width="1" stroke-linecap="butt" stroke-linejoin="miter" stroke-miterlimit="4" fill="#0E1F39" fill-opacity="1"/></svg>