<svg viewBox="0 0 96 96" xmlns="http://www.w3.org/2000/svg" xmlns:xlink="http://www.w3.org/1999/xlink" id="Icons_OfficeChair" overflow="hidden"><style>
.MsftOfcThm_Text1_Fill_v2 {
 fill:#0E1F39; 
}
</style>
<path d="M64 20C64 14.4772 59.5228 10 54 10L42 10C36.4772 10 32 14.4772 32 20L32 47 64 47Z" class="MsftOfcThm_Text1_Fill_v2" stroke-width="0.095853" fill="#0E1F39"/><path d="M75 35 70 35C68.3431 35 67 36.3431 67 38L67 38C67.0023 39.2677 67.8038 40.3962 69 40.816L69 51.043C68.9977 52.0675 68.4639 53.0174 67.59 53.552 66.8861 52.0209 65.3561 51.039 63.671 51.037L32.328 51.037C30.6433 51.0394 29.1137 52.0213 28.41 53.552 27.5361 53.0174 27.0023 52.0675 27 51.043L27 40.816C28.1959 40.3957 28.9971 39.2676 29 38L29 38C29 36.3431 27.6569 35 26 35L21 35C19.3431 35 18 36.3431 18 38L18 38C18 39.6569 19.3431 41 21 41L23 41 23 51.043C23.0044 54.3667 25.3562 57.2243 28.617 57.868 29.3891 59.1857 30.8007 59.9967 32.328 60L46 60 46 72 38.11 72C34.3074 72.0051 31.0323 74.6824 30.271 78.408 28.2797 79.3645 27.4408 81.7542 28.3974 83.7456 29.3539 85.7369 31.7436 86.5757 33.7349 85.6192 35.7262 84.6626 36.5651 82.2729 35.6086 80.2816 35.3166 79.6739 34.8758 79.1497 34.327 78.758 34.86 77.1181 36.3857 76.0058 38.11 76L46 76 46 78.555C44.0868 79.6596 43.4313 82.1059 44.5359 84.0191 45.6405 85.9323 48.0868 86.5878 50 85.4832 51.9132 84.3786 52.5687 81.9323 51.4641 80.0191 51.113 79.411 50.6081 78.9061 50 78.555L50 76 58 76C59.6969 76.0049 61.2051 77.0824 61.76 78.686 59.9131 79.9142 59.4116 82.407 60.6398 84.2539 61.8679 86.1008 64.3608 86.6023 66.2077 85.3741 68.0545 84.146 68.5561 81.6531 67.3279 79.8062 66.9548 79.2452 66.4466 78.7871 65.85 78.474 65.1157 74.7179 61.8272 72.0058 58 72L50 72 50 60 63.671 60C65.1983 59.9969 66.61 59.1859 67.382 57.868 70.6428 57.2241 72.9948 54.3667 73 51.043L73 41 75 41C76.6569 41 78 39.6569 78 38L78 38C78 36.3431 76.6569 35 75 35Z" class="MsftOfcThm_Text1_Fill_v2" stroke-width="0.095853" fill="#0E1F39"/></svg>