<svg viewBox="0 0 96 96" xmlns="http://www.w3.org/2000/svg" xmlns:xlink="http://www.w3.org/1999/xlink" id="Icons_Inpatient" overflow="hidden"><style>
.MsftOfcThm_Text1_Fill_v2 {
 fill:#0E1F39; 
}
</style>
<path d="M88 47 42 47 42 71C42.0066 73.2064 43.7936 74.9934 46 75L86 75 86 80 92 80 92 51C91.9934 48.7936 90.2064 47.0066 88 47Z" class="MsftOfcThm_Text1_Fill_v2" stroke-width="0.095853" fill="#0E1F39"/><path d="M10 35C10.0301 33.3732 8.73576 32.0301 7.10901 32 7.07268 31.9993 7.03633 31.9993 7 32 5.37325 31.9699 4.0301 33.2642 4 34.891 3.99933 34.9273 3.99933 34.9637 4 35L4 80 10 80 10 70 39 70 39 60 10 48Z" class="MsftOfcThm_Text1_Fill_v2" stroke-width="0.095853" fill="#0E1F39"/><circle cx="19.878" cy="42.288" r="6" class="MsftOfcThm_Text1_Fill_v2" stroke-width="0.095853" fill="#0E1F39"/><path d="M24.011 50.788 39 57.033 39 46.2 37.086 45.4C31.9876 43.2947 26.146 45.702 24.011 50.788Z" class="MsftOfcThm_Text1_Fill_v2" stroke-width="0.095853" fill="#0E1F39"/><path d="M74 15 52 15C50.8954 15 50 15.8954 50 17L50 32.724C50 33.8286 50.8954 34.724 52 34.724L74 34.724C75.1046 34.724 76 33.8286 76 32.724L76 17C76 15.8954 75.1046 15 74 15ZM74.226 25.574 70.706 25.574 68.175 28.352C67.8648 28.6924 67.3373 28.7169 66.9968 28.4067 66.8836 28.3035 66.8009 28.1711 66.758 28.024L65.511 23.754 62.505 31.7C62.3825 32.0249 62.0712 32.2397 61.724 32.239L61.652 32.239C61.2797 32.2058 60.9751 31.9286 60.907 31.561L59 21.387 57.793 25C57.6805 25.3423 57.3613 25.574 57.001 25.575L52 25.575 52 23.907 56.4 23.907 58.433 17.807C58.5811 17.3708 59.0547 17.1373 59.4908 17.2854 59.7752 17.3819 59.9858 17.6239 60.042 17.919L61.987 28.334 64.826 20.834C64.9886 20.403 65.4697 20.1855 65.9007 20.3481 66.1461 20.4406 66.3336 20.6432 66.407 20.895L67.941 26.129 69.719 24.185C69.8757 24.0093 70.0996 23.9082 70.335 23.907L74.225 23.907Z" class="MsftOfcThm_Text1_Fill_v2" stroke-width="0.095853" fill="#0E1F39"/></svg>